<?xml version="1.0" encoding="UTF-8" standalone="no"?>
<!DOCTYPE svg PUBLIC "-//W3C//DTD SVG 1.1//EN"
 "http://www.w3.org/Graphics/SVG/1.1/DTD/svg11.dtd">
<!-- Generated by graphviz version 2.43.0 (0)
 -->
<!-- Title: fn Pages: 1 -->
<svg width="882pt" height="1450pt"
 viewBox="0.00 0.00 882.00 1450.00" xmlns="http://www.w3.org/2000/svg" xmlns:xlink="http://www.w3.org/1999/xlink">
<g id="graph0" class="graph" transform="scale(1 1) rotate(0) translate(4 1446)">
<title>fn</title>
<polygon fill="white" stroke="transparent" points="-4,4 -4,-1446 878,-1446 878,4 -4,4"/>
<!-- primals_1 -->
<g id="node1" class="node">
<title>primals_1</title>
<path fill="AliceBlue" stroke="black" d="M458,-1257.5C458,-1257.5 603,-1257.5 603,-1257.5 609,-1257.5 615,-1263.5 615,-1269.5 615,-1269.5 615,-1429.5 615,-1429.5 615,-1435.5 609,-1441.5 603,-1441.5 603,-1441.5 458,-1441.5 458,-1441.5 452,-1441.5 446,-1435.5 446,-1429.5 446,-1429.5 446,-1269.5 446,-1269.5 446,-1263.5 452,-1257.5 458,-1257.5"/>
<text text-anchor="middle" x="530.5" y="-1426.3" font-family="Times,serif" font-size="14.00" fill="#000000">name=%primals_1</text>
<polyline fill="none" stroke="black" points="446,-1418.5 615,-1418.5 "/>
<text text-anchor="middle" x="530.5" y="-1403.3" font-family="Times,serif" font-size="14.00" fill="#000000">op_code=placeholder</text>
<polyline fill="none" stroke="black" points="446,-1395.5 615,-1395.5 "/>
<text text-anchor="middle" x="530.5" y="-1380.3" font-family="Times,serif" font-size="14.00" fill="#000000">target=primals_1</text>
<polyline fill="none" stroke="black" points="446,-1372.5 615,-1372.5 "/>
<text text-anchor="middle" x="530.5" y="-1357.3" font-family="Times,serif" font-size="14.00" fill="#000000">num_users=2</text>
<polyline fill="none" stroke="black" points="446,-1349.5 615,-1349.5 "/>
<text text-anchor="middle" x="530.5" y="-1334.3" font-family="Times,serif" font-size="14.00" fill="#000000">dtype=torch.float32</text>
<polyline fill="none" stroke="black" points="446,-1326.5 615,-1326.5 "/>
<text text-anchor="middle" x="530.5" y="-1311.3" font-family="Times,serif" font-size="14.00" fill="#000000">shape=(1, 1)</text>
<polyline fill="none" stroke="black" points="446,-1303.5 615,-1303.5 "/>
<text text-anchor="middle" x="530.5" y="-1288.3" font-family="Times,serif" font-size="14.00" fill="#000000">requires_grad=True</text>
<polyline fill="none" stroke="black" points="446,-1280.5 615,-1280.5 "/>
<text text-anchor="middle" x="530.5" y="-1265.3" font-family="Times,serif" font-size="14.00" fill="#000000">stride=(1, 1)</text>
</g>
<!-- t -->
<g id="node4" class="node">
<title>t</title>
<path fill="#caff70" stroke="black" d="M199,-1036.5C199,-1036.5 416,-1036.5 416,-1036.5 422,-1036.5 428,-1042.5 428,-1048.5 428,-1048.5 428,-1208.5 428,-1208.5 428,-1214.5 422,-1220.5 416,-1220.5 416,-1220.5 199,-1220.5 199,-1220.5 193,-1220.5 187,-1214.5 187,-1208.5 187,-1208.5 187,-1048.5 187,-1048.5 187,-1042.5 193,-1036.5 199,-1036.5"/>
<text text-anchor="middle" x="307.5" y="-1205.3" font-family="Times,serif" font-size="14.00" fill="#000000">name=%t</text>
<polyline fill="none" stroke="black" points="187,-1197.5 428,-1197.5 "/>
<text text-anchor="middle" x="307.5" y="-1182.3" font-family="Times,serif" font-size="14.00" fill="#000000">op_code=call_function</text>
<polyline fill="none" stroke="black" points="187,-1174.5 428,-1174.5 "/>
<text text-anchor="middle" x="307.5" y="-1159.3" font-family="Times,serif" font-size="14.00" fill="#000000">target=torch.ops.aten.t.default</text>
<polyline fill="none" stroke="black" points="187,-1151.5 428,-1151.5 "/>
<text text-anchor="middle" x="307.5" y="-1136.3" font-family="Times,serif" font-size="14.00" fill="#000000">num_users=1</text>
<polyline fill="none" stroke="black" points="187,-1128.5 428,-1128.5 "/>
<text text-anchor="middle" x="307.5" y="-1113.3" font-family="Times,serif" font-size="14.00" fill="#000000">dtype=torch.float32</text>
<polyline fill="none" stroke="black" points="187,-1105.5 428,-1105.5 "/>
<text text-anchor="middle" x="307.5" y="-1090.3" font-family="Times,serif" font-size="14.00" fill="#000000">shape=(1, 1)</text>
<polyline fill="none" stroke="black" points="187,-1082.5 428,-1082.5 "/>
<text text-anchor="middle" x="307.5" y="-1067.3" font-family="Times,serif" font-size="14.00" fill="#000000">requires_grad=False</text>
<polyline fill="none" stroke="black" points="187,-1059.5 428,-1059.5 "/>
<text text-anchor="middle" x="307.5" y="-1044.3" font-family="Times,serif" font-size="14.00" fill="#000000">stride=(1, 1)</text>
</g>
<!-- primals_1&#45;&gt;t -->
<g id="edge1" class="edge">
<title>primals_1&#45;&gt;t</title>
<path fill="none" stroke="black" d="M445.88,-1265.39C433.41,-1253.15 420.47,-1240.45 407.73,-1227.93"/>
<polygon fill="black" stroke="black" points="409.85,-1225.1 400.26,-1220.6 404.94,-1230.1 409.85,-1225.1"/>
</g>
<!-- t_1 -->
<g id="node8" class="node">
<title>t_1</title>
<path fill="#caff70" stroke="black" d="M645,-1036.5C645,-1036.5 862,-1036.5 862,-1036.5 868,-1036.5 874,-1042.5 874,-1048.5 874,-1048.5 874,-1208.5 874,-1208.5 874,-1214.5 868,-1220.5 862,-1220.5 862,-1220.5 645,-1220.5 645,-1220.5 639,-1220.5 633,-1214.5 633,-1208.5 633,-1208.5 633,-1048.5 633,-1048.5 633,-1042.5 639,-1036.5 645,-1036.5"/>
<text text-anchor="middle" x="753.5" y="-1205.3" font-family="Times,serif" font-size="14.00" fill="#000000">name=%t_1</text>
<polyline fill="none" stroke="black" points="633,-1197.5 874,-1197.5 "/>
<text text-anchor="middle" x="753.5" y="-1182.3" font-family="Times,serif" font-size="14.00" fill="#000000">op_code=call_function</text>
<polyline fill="none" stroke="black" points="633,-1174.5 874,-1174.5 "/>
<text text-anchor="middle" x="753.5" y="-1159.3" font-family="Times,serif" font-size="14.00" fill="#000000">target=torch.ops.aten.t.default</text>
<polyline fill="none" stroke="black" points="633,-1151.5 874,-1151.5 "/>
<text text-anchor="middle" x="753.5" y="-1136.3" font-family="Times,serif" font-size="14.00" fill="#000000">num_users=1</text>
<polyline fill="none" stroke="black" points="633,-1128.5 874,-1128.5 "/>
<text text-anchor="middle" x="753.5" y="-1113.3" font-family="Times,serif" font-size="14.00" fill="#000000">dtype=torch.float32</text>
<polyline fill="none" stroke="black" points="633,-1105.5 874,-1105.5 "/>
<text text-anchor="middle" x="753.5" y="-1090.3" font-family="Times,serif" font-size="14.00" fill="#000000">shape=(1, 1)</text>
<polyline fill="none" stroke="black" points="633,-1082.5 874,-1082.5 "/>
<text text-anchor="middle" x="753.5" y="-1067.3" font-family="Times,serif" font-size="14.00" fill="#000000">requires_grad=False</text>
<polyline fill="none" stroke="black" points="633,-1059.5 874,-1059.5 "/>
<text text-anchor="middle" x="753.5" y="-1044.3" font-family="Times,serif" font-size="14.00" fill="#000000">stride=(1, 1)</text>
</g>
<!-- primals_1&#45;&gt;t_1 -->
<g id="edge2" class="edge">
<title>primals_1&#45;&gt;t_1</title>
<path fill="none" stroke="black" d="M615.12,-1265.39C627.59,-1253.15 640.53,-1240.45 653.27,-1227.93"/>
<polygon fill="black" stroke="black" points="656.06,-1230.1 660.74,-1220.6 651.15,-1225.1 656.06,-1230.1"/>
</g>
<!-- primals_2 -->
<g id="node2" class="node">
<title>primals_2</title>
<path fill="AliceBlue" stroke="black" d="M458,-1036.5C458,-1036.5 603,-1036.5 603,-1036.5 609,-1036.5 615,-1042.5 615,-1048.5 615,-1048.5 615,-1208.5 615,-1208.5 615,-1214.5 609,-1220.5 603,-1220.5 603,-1220.5 458,-1220.5 458,-1220.5 452,-1220.5 446,-1214.5 446,-1208.5 446,-1208.5 446,-1048.5 446,-1048.5 446,-1042.5 452,-1036.5 458,-1036.5"/>
<text text-anchor="middle" x="530.5" y="-1205.3" font-family="Times,serif" font-size="14.00" fill="#000000">name=%primals_2</text>
<polyline fill="none" stroke="black" points="446,-1197.5 615,-1197.5 "/>
<text text-anchor="middle" x="530.5" y="-1182.3" font-family="Times,serif" font-size="14.00" fill="#000000">op_code=placeholder</text>
<polyline fill="none" stroke="black" points="446,-1174.5 615,-1174.5 "/>
<text text-anchor="middle" x="530.5" y="-1159.3" font-family="Times,serif" font-size="14.00" fill="#000000">target=primals_2</text>
<polyline fill="none" stroke="black" points="446,-1151.5 615,-1151.5 "/>
<text text-anchor="middle" x="530.5" y="-1136.3" font-family="Times,serif" font-size="14.00" fill="#000000">num_users=2</text>
<polyline fill="none" stroke="black" points="446,-1128.5 615,-1128.5 "/>
<text text-anchor="middle" x="530.5" y="-1113.3" font-family="Times,serif" font-size="14.00" fill="#000000">dtype=torch.float32</text>
<polyline fill="none" stroke="black" points="446,-1105.5 615,-1105.5 "/>
<text text-anchor="middle" x="530.5" y="-1090.3" font-family="Times,serif" font-size="14.00" fill="#000000">shape=(1,)</text>
<polyline fill="none" stroke="black" points="446,-1082.5 615,-1082.5 "/>
<text text-anchor="middle" x="530.5" y="-1067.3" font-family="Times,serif" font-size="14.00" fill="#000000">requires_grad=True</text>
<polyline fill="none" stroke="black" points="446,-1059.5 615,-1059.5 "/>
<text text-anchor="middle" x="530.5" y="-1044.3" font-family="Times,serif" font-size="14.00" fill="#000000">stride=(1,)</text>
</g>
<!-- addmm -->
<g id="node5" class="node">
<title>addmm</title>
<path fill="#ffe1ff" stroke="black" d="M135.5,-815.5C135.5,-815.5 399.5,-815.5 399.5,-815.5 405.5,-815.5 411.5,-821.5 411.5,-827.5 411.5,-827.5 411.5,-987.5 411.5,-987.5 411.5,-993.5 405.5,-999.5 399.5,-999.5 399.5,-999.5 135.5,-999.5 135.5,-999.5 129.5,-999.5 123.5,-993.5 123.5,-987.5 123.5,-987.5 123.5,-827.5 123.5,-827.5 123.5,-821.5 129.5,-815.5 135.5,-815.5"/>
<text text-anchor="middle" x="267.5" y="-984.3" font-family="Times,serif" font-size="14.00" fill="#000000">name=%addmm</text>
<polyline fill="none" stroke="black" points="123.5,-976.5 411.5,-976.5 "/>
<text text-anchor="middle" x="267.5" y="-961.3" font-family="Times,serif" font-size="14.00" fill="#000000">op_code=call_function</text>
<polyline fill="none" stroke="black" points="123.5,-953.5 411.5,-953.5 "/>
<text text-anchor="middle" x="267.5" y="-938.3" font-family="Times,serif" font-size="14.00" fill="#000000">target=torch.ops.aten.addmm.default</text>
<polyline fill="none" stroke="black" points="123.5,-930.5 411.5,-930.5 "/>
<text text-anchor="middle" x="267.5" y="-915.3" font-family="Times,serif" font-size="14.00" fill="#000000">num_users=2</text>
<polyline fill="none" stroke="black" points="123.5,-907.5 411.5,-907.5 "/>
<text text-anchor="middle" x="267.5" y="-892.3" font-family="Times,serif" font-size="14.00" fill="#000000">dtype=torch.float32</text>
<polyline fill="none" stroke="black" points="123.5,-884.5 411.5,-884.5 "/>
<text text-anchor="middle" x="267.5" y="-869.3" font-family="Times,serif" font-size="14.00" fill="#000000">shape=(2000, 1)</text>
<polyline fill="none" stroke="black" points="123.5,-861.5 411.5,-861.5 "/>
<text text-anchor="middle" x="267.5" y="-846.3" font-family="Times,serif" font-size="14.00" fill="#000000">requires_grad=False</text>
<polyline fill="none" stroke="black" points="123.5,-838.5 411.5,-838.5 "/>
<text text-anchor="middle" x="267.5" y="-823.3" font-family="Times,serif" font-size="14.00" fill="#000000">stride=(1, 1)</text>
</g>
<!-- primals_2&#45;&gt;addmm -->
<g id="edge3" class="edge">
<title>primals_2&#45;&gt;addmm</title>
<path fill="none" stroke="black" d="M445.79,-1043.26C443.01,-1040.79 440.25,-1038.36 437.5,-1036 425.91,-1026.03 413.63,-1015.95 401.17,-1006.06"/>
<polygon fill="black" stroke="black" points="402.98,-1003.03 392.96,-999.59 398.64,-1008.53 402.98,-1003.03"/>
</g>
<!-- addmm_1 -->
<g id="node9" class="node">
<title>addmm_1</title>
<path fill="#ffe1ff" stroke="black" d="M441.5,-815.5C441.5,-815.5 705.5,-815.5 705.5,-815.5 711.5,-815.5 717.5,-821.5 717.5,-827.5 717.5,-827.5 717.5,-987.5 717.5,-987.5 717.5,-993.5 711.5,-999.5 705.5,-999.5 705.5,-999.5 441.5,-999.5 441.5,-999.5 435.5,-999.5 429.5,-993.5 429.5,-987.5 429.5,-987.5 429.5,-827.5 429.5,-827.5 429.5,-821.5 435.5,-815.5 441.5,-815.5"/>
<text text-anchor="middle" x="573.5" y="-984.3" font-family="Times,serif" font-size="14.00" fill="#000000">name=%addmm_1</text>
<polyline fill="none" stroke="black" points="429.5,-976.5 717.5,-976.5 "/>
<text text-anchor="middle" x="573.5" y="-961.3" font-family="Times,serif" font-size="14.00" fill="#000000">op_code=call_function</text>
<polyline fill="none" stroke="black" points="429.5,-953.5 717.5,-953.5 "/>
<text text-anchor="middle" x="573.5" y="-938.3" font-family="Times,serif" font-size="14.00" fill="#000000">target=torch.ops.aten.addmm.default</text>
<polyline fill="none" stroke="black" points="429.5,-930.5 717.5,-930.5 "/>
<text text-anchor="middle" x="573.5" y="-915.3" font-family="Times,serif" font-size="14.00" fill="#000000">num_users=2</text>
<polyline fill="none" stroke="black" points="429.5,-907.5 717.5,-907.5 "/>
<text text-anchor="middle" x="573.5" y="-892.3" font-family="Times,serif" font-size="14.00" fill="#000000">dtype=torch.float32</text>
<polyline fill="none" stroke="black" points="429.5,-884.5 717.5,-884.5 "/>
<text text-anchor="middle" x="573.5" y="-869.3" font-family="Times,serif" font-size="14.00" fill="#000000">shape=(2000, 1)</text>
<polyline fill="none" stroke="black" points="429.5,-861.5 717.5,-861.5 "/>
<text text-anchor="middle" x="573.5" y="-846.3" font-family="Times,serif" font-size="14.00" fill="#000000">requires_grad=False</text>
<polyline fill="none" stroke="black" points="429.5,-838.5 717.5,-838.5 "/>
<text text-anchor="middle" x="573.5" y="-823.3" font-family="Times,serif" font-size="14.00" fill="#000000">stride=(1, 1)</text>
</g>
<!-- primals_2&#45;&gt;addmm_1 -->
<g id="edge4" class="edge">
<title>primals_2&#45;&gt;addmm_1</title>
<path fill="none" stroke="black" d="M548.42,-1036.21C550.15,-1027.43 551.91,-1018.48 553.65,-1009.61"/>
<polygon fill="black" stroke="black" points="557.11,-1010.13 555.6,-999.64 550.24,-1008.78 557.11,-1010.13"/>
</g>
<!-- primals_3 -->
<g id="node3" class="node">
<title>primals_3</title>
<path fill="AliceBlue" stroke="black" d="M12,-1036.5C12,-1036.5 157,-1036.5 157,-1036.5 163,-1036.5 169,-1042.5 169,-1048.5 169,-1048.5 169,-1208.5 169,-1208.5 169,-1214.5 163,-1220.5 157,-1220.5 157,-1220.5 12,-1220.5 12,-1220.5 6,-1220.5 0,-1214.5 0,-1208.5 0,-1208.5 0,-1048.5 0,-1048.5 0,-1042.5 6,-1036.5 12,-1036.5"/>
<text text-anchor="middle" x="84.5" y="-1205.3" font-family="Times,serif" font-size="14.00" fill="#000000">name=%primals_3</text>
<polyline fill="none" stroke="black" points="0,-1197.5 169,-1197.5 "/>
<text text-anchor="middle" x="84.5" y="-1182.3" font-family="Times,serif" font-size="14.00" fill="#000000">op_code=placeholder</text>
<polyline fill="none" stroke="black" points="0,-1174.5 169,-1174.5 "/>
<text text-anchor="middle" x="84.5" y="-1159.3" font-family="Times,serif" font-size="14.00" fill="#000000">target=primals_3</text>
<polyline fill="none" stroke="black" points="0,-1151.5 169,-1151.5 "/>
<text text-anchor="middle" x="84.5" y="-1136.3" font-family="Times,serif" font-size="14.00" fill="#000000">num_users=3</text>
<polyline fill="none" stroke="black" points="0,-1128.5 169,-1128.5 "/>
<text text-anchor="middle" x="84.5" y="-1113.3" font-family="Times,serif" font-size="14.00" fill="#000000">dtype=torch.float32</text>
<polyline fill="none" stroke="black" points="0,-1105.5 169,-1105.5 "/>
<text text-anchor="middle" x="84.5" y="-1090.3" font-family="Times,serif" font-size="14.00" fill="#000000">shape=(2000, 1)</text>
<polyline fill="none" stroke="black" points="0,-1082.5 169,-1082.5 "/>
<text text-anchor="middle" x="84.5" y="-1067.3" font-family="Times,serif" font-size="14.00" fill="#000000">requires_grad=False</text>
<polyline fill="none" stroke="black" points="0,-1059.5 169,-1059.5 "/>
<text text-anchor="middle" x="84.5" y="-1044.3" font-family="Times,serif" font-size="14.00" fill="#000000">stride=(1, 1)</text>
</g>
<!-- primals_3&#45;&gt;addmm -->
<g id="edge5" class="edge">
<title>primals_3&#45;&gt;addmm</title>
<path fill="none" stroke="black" d="M160.78,-1036.21C168.75,-1026.67 176.88,-1016.94 184.92,-1007.33"/>
<polygon fill="black" stroke="black" points="187.61,-1009.56 191.34,-999.64 182.24,-1005.07 187.61,-1009.56"/>
</g>
<!-- primals_3&#45;&gt;addmm_1 -->
<g id="edge6" class="edge">
<title>primals_3&#45;&gt;addmm_1</title>
<path fill="none" stroke="black" d="M169.13,-1041.11C172.21,-1039.28 175.34,-1037.57 178.5,-1036 273.09,-989.16 315.59,-1033.82 419.66,-999.99"/>
<polygon fill="black" stroke="black" points="420.93,-1003.25 429.26,-996.71 418.66,-996.63 420.93,-1003.25"/>
</g>
<!-- output -->
<g id="node12" class="node">
<title>output</title>
<path fill="PowderBlue" stroke="black" d="M147,-0.5C147,-0.5 256,-0.5 256,-0.5 262,-0.5 268,-6.5 268,-12.5 268,-12.5 268,-80.5 268,-80.5 268,-86.5 262,-92.5 256,-92.5 256,-92.5 147,-92.5 147,-92.5 141,-92.5 135,-86.5 135,-80.5 135,-80.5 135,-12.5 135,-12.5 135,-6.5 141,-0.5 147,-0.5"/>
<text text-anchor="middle" x="201.5" y="-77.3" font-family="Times,serif" font-size="14.00" fill="#000000">name=%output</text>
<polyline fill="none" stroke="black" points="135,-69.5 268,-69.5 "/>
<text text-anchor="middle" x="201.5" y="-54.3" font-family="Times,serif" font-size="14.00" fill="#000000">op_code=output</text>
<polyline fill="none" stroke="black" points="135,-46.5 268,-46.5 "/>
<text text-anchor="middle" x="201.5" y="-31.3" font-family="Times,serif" font-size="14.00" fill="#000000">target=output</text>
<polyline fill="none" stroke="black" points="135,-23.5 268,-23.5 "/>
<text text-anchor="middle" x="201.5" y="-8.3" font-family="Times,serif" font-size="14.00" fill="#000000">num_users=0</text>
</g>
<!-- primals_3&#45;&gt;output -->
<g id="edge7" class="edge">
<title>primals_3&#45;&gt;output</title>
<path fill="none" stroke="black" d="M84.5,-1036.49C84.5,-947.51 84.5,-808.19 84.5,-687.5 84.5,-687.5 84.5,-687.5 84.5,-453 84.5,-308.61 44.06,-258.22 108.5,-129 113.74,-118.49 120.98,-108.76 129.14,-99.94"/>
<polygon fill="black" stroke="black" points="131.68,-102.35 136.18,-92.75 126.68,-97.45 131.68,-102.35"/>
</g>
<!-- t&#45;&gt;addmm -->
<g id="edge8" class="edge">
<title>t&#45;&gt;addmm</title>
<path fill="none" stroke="black" d="M290.83,-1036.21C289.22,-1027.43 287.59,-1018.48 285.97,-1009.61"/>
<polygon fill="black" stroke="black" points="289.39,-1008.85 284.15,-999.64 282.5,-1010.11 289.39,-1008.85"/>
</g>
<!-- sin -->
<g id="node6" class="node">
<title>sin</title>
<path fill="#ffe4e1" stroke="black" d="M163.5,-594.5C163.5,-594.5 395.5,-594.5 395.5,-594.5 401.5,-594.5 407.5,-600.5 407.5,-606.5 407.5,-606.5 407.5,-766.5 407.5,-766.5 407.5,-772.5 401.5,-778.5 395.5,-778.5 395.5,-778.5 163.5,-778.5 163.5,-778.5 157.5,-778.5 151.5,-772.5 151.5,-766.5 151.5,-766.5 151.5,-606.5 151.5,-606.5 151.5,-600.5 157.5,-594.5 163.5,-594.5"/>
<text text-anchor="middle" x="279.5" y="-763.3" font-family="Times,serif" font-size="14.00" fill="#000000">name=%sin</text>
<polyline fill="none" stroke="black" points="151.5,-755.5 407.5,-755.5 "/>
<text text-anchor="middle" x="279.5" y="-740.3" font-family="Times,serif" font-size="14.00" fill="#000000">op_code=call_function</text>
<polyline fill="none" stroke="black" points="151.5,-732.5 407.5,-732.5 "/>
<text text-anchor="middle" x="279.5" y="-717.3" font-family="Times,serif" font-size="14.00" fill="#000000">target=torch.ops.aten.sin.default</text>
<polyline fill="none" stroke="black" points="151.5,-709.5 407.5,-709.5 "/>
<text text-anchor="middle" x="279.5" y="-694.3" font-family="Times,serif" font-size="14.00" fill="#000000">num_users=1</text>
<polyline fill="none" stroke="black" points="151.5,-686.5 407.5,-686.5 "/>
<text text-anchor="middle" x="279.5" y="-671.3" font-family="Times,serif" font-size="14.00" fill="#000000">dtype=torch.float32</text>
<polyline fill="none" stroke="black" points="151.5,-663.5 407.5,-663.5 "/>
<text text-anchor="middle" x="279.5" y="-648.3" font-family="Times,serif" font-size="14.00" fill="#000000">shape=(2000, 1)</text>
<polyline fill="none" stroke="black" points="151.5,-640.5 407.5,-640.5 "/>
<text text-anchor="middle" x="279.5" y="-625.3" font-family="Times,serif" font-size="14.00" fill="#000000">requires_grad=False</text>
<polyline fill="none" stroke="black" points="151.5,-617.5 407.5,-617.5 "/>
<text text-anchor="middle" x="279.5" y="-602.3" font-family="Times,serif" font-size="14.00" fill="#000000">stride=(1, 1)</text>
</g>
<!-- addmm&#45;&gt;sin -->
<g id="edge9" class="edge">
<title>addmm&#45;&gt;sin</title>
<path fill="none" stroke="black" d="M272.5,-815.21C272.98,-806.52 273.46,-797.68 273.94,-788.9"/>
<polygon fill="black" stroke="black" points="277.45,-788.82 274.51,-778.64 270.46,-788.44 277.45,-788.82"/>
</g>
<!-- addmm&#45;&gt;output -->
<g id="edge10" class="edge">
<title>addmm&#45;&gt;output</title>
<path fill="none" stroke="black" d="M163.26,-815.34C154.94,-803.93 147.74,-791.76 142.5,-779 87.58,-645.4 97.67,-266.31 142.5,-129 145.63,-119.41 150.35,-110 155.79,-101.18"/>
<polygon fill="black" stroke="black" points="158.88,-102.85 161.42,-92.56 153.02,-99.01 158.88,-102.85"/>
</g>
<!-- mul -->
<g id="node7" class="node">
<title>mul</title>
<path fill="#ffe7ba" stroke="black" d="M162.5,-350.5C162.5,-350.5 398.5,-350.5 398.5,-350.5 404.5,-350.5 410.5,-356.5 410.5,-362.5 410.5,-362.5 410.5,-545.5 410.5,-545.5 410.5,-551.5 404.5,-557.5 398.5,-557.5 398.5,-557.5 162.5,-557.5 162.5,-557.5 156.5,-557.5 150.5,-551.5 150.5,-545.5 150.5,-545.5 150.5,-362.5 150.5,-362.5 150.5,-356.5 156.5,-350.5 162.5,-350.5"/>
<text text-anchor="middle" x="280.5" y="-542.3" font-family="Times,serif" font-size="14.00" fill="#000000">name=%mul</text>
<polyline fill="none" stroke="black" points="150.5,-534.5 410.5,-534.5 "/>
<text text-anchor="middle" x="280.5" y="-519.3" font-family="Times,serif" font-size="14.00" fill="#000000">op_code=call_function</text>
<polyline fill="none" stroke="black" points="150.5,-511.5 410.5,-511.5 "/>
<text text-anchor="middle" x="280.5" y="-496.3" font-family="Times,serif" font-size="14.00" fill="#000000">target=torch.ops.aten.mul.Tensor</text>
<polyline fill="none" stroke="black" points="150.5,-488.5 410.5,-488.5 "/>
<text text-anchor="middle" x="280.5" y="-473.3" font-family="Times,serif" font-size="14.00" fill="#000000">args=(2,)</text>
<polyline fill="none" stroke="black" points="150.5,-465.5 410.5,-465.5 "/>
<text text-anchor="middle" x="280.5" y="-450.3" font-family="Times,serif" font-size="14.00" fill="#000000">num_users=1</text>
<polyline fill="none" stroke="black" points="150.5,-442.5 410.5,-442.5 "/>
<text text-anchor="middle" x="280.5" y="-427.3" font-family="Times,serif" font-size="14.00" fill="#000000">dtype=torch.float32</text>
<polyline fill="none" stroke="black" points="150.5,-419.5 410.5,-419.5 "/>
<text text-anchor="middle" x="280.5" y="-404.3" font-family="Times,serif" font-size="14.00" fill="#000000">shape=(2000, 1)</text>
<polyline fill="none" stroke="black" points="150.5,-396.5 410.5,-396.5 "/>
<text text-anchor="middle" x="280.5" y="-381.3" font-family="Times,serif" font-size="14.00" fill="#000000">requires_grad=False</text>
<polyline fill="none" stroke="black" points="150.5,-373.5 410.5,-373.5 "/>
<text text-anchor="middle" x="280.5" y="-358.3" font-family="Times,serif" font-size="14.00" fill="#000000">stride=(1, 1)</text>
</g>
<!-- sin&#45;&gt;mul -->
<g id="edge11" class="edge">
<title>sin&#45;&gt;mul</title>
<path fill="none" stroke="black" d="M279.9,-594.4C279.93,-585.62 279.97,-576.65 280.01,-567.7"/>
<polygon fill="black" stroke="black" points="283.51,-567.63 280.05,-557.61 276.51,-567.6 283.51,-567.63"/>
</g>
<!-- add -->
<g id="node11" class="node">
<title>add</title>
<path fill="#ffe4e1" stroke="black" d="M163,-129.5C163,-129.5 398,-129.5 398,-129.5 404,-129.5 410,-135.5 410,-141.5 410,-141.5 410,-301.5 410,-301.5 410,-307.5 404,-313.5 398,-313.5 398,-313.5 163,-313.5 163,-313.5 157,-313.5 151,-307.5 151,-301.5 151,-301.5 151,-141.5 151,-141.5 151,-135.5 157,-129.5 163,-129.5"/>
<text text-anchor="middle" x="280.5" y="-298.3" font-family="Times,serif" font-size="14.00" fill="#000000">name=%add</text>
<polyline fill="none" stroke="black" points="151,-290.5 410,-290.5 "/>
<text text-anchor="middle" x="280.5" y="-275.3" font-family="Times,serif" font-size="14.00" fill="#000000">op_code=call_function</text>
<polyline fill="none" stroke="black" points="151,-267.5 410,-267.5 "/>
<text text-anchor="middle" x="280.5" y="-252.3" font-family="Times,serif" font-size="14.00" fill="#000000">target=torch.ops.aten.add.Tensor</text>
<polyline fill="none" stroke="black" points="151,-244.5 410,-244.5 "/>
<text text-anchor="middle" x="280.5" y="-229.3" font-family="Times,serif" font-size="14.00" fill="#000000">num_users=1</text>
<polyline fill="none" stroke="black" points="151,-221.5 410,-221.5 "/>
<text text-anchor="middle" x="280.5" y="-206.3" font-family="Times,serif" font-size="14.00" fill="#000000">dtype=torch.float32</text>
<polyline fill="none" stroke="black" points="151,-198.5 410,-198.5 "/>
<text text-anchor="middle" x="280.5" y="-183.3" font-family="Times,serif" font-size="14.00" fill="#000000">shape=(2000, 1)</text>
<polyline fill="none" stroke="black" points="151,-175.5 410,-175.5 "/>
<text text-anchor="middle" x="280.5" y="-160.3" font-family="Times,serif" font-size="14.00" fill="#000000">requires_grad=False</text>
<polyline fill="none" stroke="black" points="151,-152.5 410,-152.5 "/>
<text text-anchor="middle" x="280.5" y="-137.3" font-family="Times,serif" font-size="14.00" fill="#000000">stride=(1, 1)</text>
</g>
<!-- mul&#45;&gt;add -->
<g id="edge12" class="edge">
<title>mul&#45;&gt;add</title>
<path fill="none" stroke="black" d="M280.5,-350.22C280.5,-341.51 280.5,-332.69 280.5,-323.99"/>
<polygon fill="black" stroke="black" points="284,-323.83 280.5,-313.83 277,-323.83 284,-323.83"/>
</g>
<!-- t_1&#45;&gt;addmm_1 -->
<g id="edge13" class="edge">
<title>t_1&#45;&gt;addmm_1</title>
<path fill="none" stroke="black" d="M678.47,-1036.21C670.7,-1026.77 662.79,-1017.14 654.96,-1007.61"/>
<polygon fill="black" stroke="black" points="657.46,-1005.15 648.41,-999.64 652.06,-1009.59 657.46,-1005.15"/>
</g>
<!-- cos -->
<g id="node10" class="node">
<title>cos</title>
<path fill="Coral" stroke="black" d="M440.5,-362C440.5,-362 674.5,-362 674.5,-362 680.5,-362 686.5,-368 686.5,-374 686.5,-374 686.5,-534 686.5,-534 686.5,-540 680.5,-546 674.5,-546 674.5,-546 440.5,-546 440.5,-546 434.5,-546 428.5,-540 428.5,-534 428.5,-534 428.5,-374 428.5,-374 428.5,-368 434.5,-362 440.5,-362"/>
<text text-anchor="middle" x="557.5" y="-530.8" font-family="Times,serif" font-size="14.00" fill="#000000">name=%cos</text>
<polyline fill="none" stroke="black" points="428.5,-523 686.5,-523 "/>
<text text-anchor="middle" x="557.5" y="-507.8" font-family="Times,serif" font-size="14.00" fill="#000000">op_code=call_function</text>
<polyline fill="none" stroke="black" points="428.5,-500 686.5,-500 "/>
<text text-anchor="middle" x="557.5" y="-484.8" font-family="Times,serif" font-size="14.00" fill="#000000">target=torch.ops.aten.cos.default</text>
<polyline fill="none" stroke="black" points="428.5,-477 686.5,-477 "/>
<text text-anchor="middle" x="557.5" y="-461.8" font-family="Times,serif" font-size="14.00" fill="#000000">num_users=1</text>
<polyline fill="none" stroke="black" points="428.5,-454 686.5,-454 "/>
<text text-anchor="middle" x="557.5" y="-438.8" font-family="Times,serif" font-size="14.00" fill="#000000">dtype=torch.float32</text>
<polyline fill="none" stroke="black" points="428.5,-431 686.5,-431 "/>
<text text-anchor="middle" x="557.5" y="-415.8" font-family="Times,serif" font-size="14.00" fill="#000000">shape=(2000, 1)</text>
<polyline fill="none" stroke="black" points="428.5,-408 686.5,-408 "/>
<text text-anchor="middle" x="557.5" y="-392.8" font-family="Times,serif" font-size="14.00" fill="#000000">requires_grad=False</text>
<polyline fill="none" stroke="black" points="428.5,-385 686.5,-385 "/>
<text text-anchor="middle" x="557.5" y="-369.8" font-family="Times,serif" font-size="14.00" fill="#000000">stride=(1, 1)</text>
</g>
<!-- addmm_1&#45;&gt;cos -->
<g id="edge14" class="edge">
<title>addmm_1&#45;&gt;cos</title>
<path fill="none" stroke="black" d="M570.27,-815.4C567.62,-740.46 563.85,-634.32 561.1,-556.63"/>
<polygon fill="black" stroke="black" points="564.59,-556.21 560.74,-546.34 557.59,-556.46 564.59,-556.21"/>
</g>
<!-- addmm_1&#45;&gt;output -->
<g id="edge15" class="edge">
<title>addmm_1&#45;&gt;output</title>
<path fill="none" stroke="black" d="M628.34,-815.11C689,-701.27 769.05,-503.13 695.5,-350 615.45,-183.36 395.63,-100.06 278.06,-66.34"/>
<polygon fill="black" stroke="black" points="278.96,-62.96 268.39,-63.61 277.06,-69.69 278.96,-62.96"/>
</g>
<!-- cos&#45;&gt;add -->
<g id="edge16" class="edge">
<title>cos&#45;&gt;add</title>
<path fill="none" stroke="black" d="M448.02,-361.9C431.65,-348.27 414.71,-334.18 398.17,-320.42"/>
<polygon fill="black" stroke="black" points="400.02,-317.4 390.09,-313.69 395.54,-322.78 400.02,-317.4"/>
</g>
<!-- add&#45;&gt;output -->
<g id="edge17" class="edge">
<title>add&#45;&gt;output</title>
<path fill="none" stroke="black" d="M238.92,-129.44C234.66,-120.11 230.43,-110.86 226.44,-102.11"/>
<polygon fill="black" stroke="black" points="229.54,-100.48 222.2,-92.84 223.17,-103.39 229.54,-100.48"/>
</g>
</g>
</svg>
