<?xml version="1.0" encoding="UTF-8" standalone="no"?>
<!DOCTYPE svg PUBLIC "-//W3C//DTD SVG 1.1//EN"
 "http://www.w3.org/Graphics/SVG/1.1/DTD/svg11.dtd">
<!-- Generated by graphviz version 2.43.0 (0)
 -->
<!-- Title: fn Pages: 1 -->
<svg width="994pt" height="1473pt"
 viewBox="0.00 0.00 993.50 1473.00" xmlns="http://www.w3.org/2000/svg" xmlns:xlink="http://www.w3.org/1999/xlink">
<g id="graph0" class="graph" transform="scale(1 1) rotate(0) translate(4 1469)">
<title>fn</title>
<polygon fill="white" stroke="transparent" points="-4,4 -4,-1469 989.5,-1469 989.5,4 -4,4"/>
<!-- primals_1 -->
<g id="node1" class="node">
<title>primals_1</title>
<path fill="AliceBlue" stroke="black" d="M514,-1280.5C514,-1280.5 659,-1280.5 659,-1280.5 665,-1280.5 671,-1286.5 671,-1292.5 671,-1292.5 671,-1452.5 671,-1452.5 671,-1458.5 665,-1464.5 659,-1464.5 659,-1464.5 514,-1464.5 514,-1464.5 508,-1464.5 502,-1458.5 502,-1452.5 502,-1452.5 502,-1292.5 502,-1292.5 502,-1286.5 508,-1280.5 514,-1280.5"/>
<text text-anchor="middle" x="586.5" y="-1449.3" font-family="Times,serif" font-size="14.00" fill="#000000">name=%primals_1</text>
<polyline fill="none" stroke="black" points="502,-1441.5 671,-1441.5 "/>
<text text-anchor="middle" x="586.5" y="-1426.3" font-family="Times,serif" font-size="14.00" fill="#000000">op_code=placeholder</text>
<polyline fill="none" stroke="black" points="502,-1418.5 671,-1418.5 "/>
<text text-anchor="middle" x="586.5" y="-1403.3" font-family="Times,serif" font-size="14.00" fill="#000000">target=primals_1</text>
<polyline fill="none" stroke="black" points="502,-1395.5 671,-1395.5 "/>
<text text-anchor="middle" x="586.5" y="-1380.3" font-family="Times,serif" font-size="14.00" fill="#000000">num_users=2</text>
<polyline fill="none" stroke="black" points="502,-1372.5 671,-1372.5 "/>
<text text-anchor="middle" x="586.5" y="-1357.3" font-family="Times,serif" font-size="14.00" fill="#000000">dtype=torch.float32</text>
<polyline fill="none" stroke="black" points="502,-1349.5 671,-1349.5 "/>
<text text-anchor="middle" x="586.5" y="-1334.3" font-family="Times,serif" font-size="14.00" fill="#000000">shape=(1, 1)</text>
<polyline fill="none" stroke="black" points="502,-1326.5 671,-1326.5 "/>
<text text-anchor="middle" x="586.5" y="-1311.3" font-family="Times,serif" font-size="14.00" fill="#000000">requires_grad=True</text>
<polyline fill="none" stroke="black" points="502,-1303.5 671,-1303.5 "/>
<text text-anchor="middle" x="586.5" y="-1288.3" font-family="Times,serif" font-size="14.00" fill="#000000">stride=(1, 1)</text>
</g>
<!-- permute -->
<g id="node4" class="node">
<title>permute</title>
<path fill="#98f5ff" stroke="black" d="M199.5,-1036.5C199.5,-1036.5 471.5,-1036.5 471.5,-1036.5 477.5,-1036.5 483.5,-1042.5 483.5,-1048.5 483.5,-1048.5 483.5,-1231.5 483.5,-1231.5 483.5,-1237.5 477.5,-1243.5 471.5,-1243.5 471.5,-1243.5 199.5,-1243.5 199.5,-1243.5 193.5,-1243.5 187.5,-1237.5 187.5,-1231.5 187.5,-1231.5 187.5,-1048.5 187.5,-1048.5 187.5,-1042.5 193.5,-1036.5 199.5,-1036.5"/>
<text text-anchor="middle" x="335.5" y="-1228.3" font-family="Times,serif" font-size="14.00" fill="#000000">name=%permute</text>
<polyline fill="none" stroke="black" points="187.5,-1220.5 483.5,-1220.5 "/>
<text text-anchor="middle" x="335.5" y="-1205.3" font-family="Times,serif" font-size="14.00" fill="#000000">op_code=call_function</text>
<polyline fill="none" stroke="black" points="187.5,-1197.5 483.5,-1197.5 "/>
<text text-anchor="middle" x="335.5" y="-1182.3" font-family="Times,serif" font-size="14.00" fill="#000000">target=torch.ops.aten.permute.default</text>
<polyline fill="none" stroke="black" points="187.5,-1174.5 483.5,-1174.5 "/>
<text text-anchor="middle" x="335.5" y="-1159.3" font-family="Times,serif" font-size="14.00" fill="#000000">args=([1, 0],)</text>
<polyline fill="none" stroke="black" points="187.5,-1151.5 483.5,-1151.5 "/>
<text text-anchor="middle" x="335.5" y="-1136.3" font-family="Times,serif" font-size="14.00" fill="#000000">num_users=1</text>
<polyline fill="none" stroke="black" points="187.5,-1128.5 483.5,-1128.5 "/>
<text text-anchor="middle" x="335.5" y="-1113.3" font-family="Times,serif" font-size="14.00" fill="#000000">dtype=torch.float32</text>
<polyline fill="none" stroke="black" points="187.5,-1105.5 483.5,-1105.5 "/>
<text text-anchor="middle" x="335.5" y="-1090.3" font-family="Times,serif" font-size="14.00" fill="#000000">shape=(1, 1)</text>
<polyline fill="none" stroke="black" points="187.5,-1082.5 483.5,-1082.5 "/>
<text text-anchor="middle" x="335.5" y="-1067.3" font-family="Times,serif" font-size="14.00" fill="#000000">requires_grad=False</text>
<polyline fill="none" stroke="black" points="187.5,-1059.5 483.5,-1059.5 "/>
<text text-anchor="middle" x="335.5" y="-1044.3" font-family="Times,serif" font-size="14.00" fill="#000000">stride=(1, 1)</text>
</g>
<!-- primals_1&#45;&gt;permute -->
<g id="edge1" class="edge">
<title>primals_1&#45;&gt;permute</title>
<path fill="none" stroke="black" d="M501.87,-1293.78C486.83,-1279.97 470.91,-1265.35 455.11,-1250.84"/>
<polygon fill="black" stroke="black" points="457.1,-1247.92 447.37,-1243.73 452.36,-1253.07 457.1,-1247.92"/>
</g>
<!-- permute_1 -->
<g id="node8" class="node">
<title>permute_1</title>
<path fill="#98f5ff" stroke="black" d="M701.5,-1036.5C701.5,-1036.5 973.5,-1036.5 973.5,-1036.5 979.5,-1036.5 985.5,-1042.5 985.5,-1048.5 985.5,-1048.5 985.5,-1231.5 985.5,-1231.5 985.5,-1237.5 979.5,-1243.5 973.5,-1243.5 973.5,-1243.5 701.5,-1243.5 701.5,-1243.5 695.5,-1243.5 689.5,-1237.5 689.5,-1231.5 689.5,-1231.5 689.5,-1048.5 689.5,-1048.5 689.5,-1042.5 695.5,-1036.5 701.5,-1036.5"/>
<text text-anchor="middle" x="837.5" y="-1228.3" font-family="Times,serif" font-size="14.00" fill="#000000">name=%permute_1</text>
<polyline fill="none" stroke="black" points="689.5,-1220.5 985.5,-1220.5 "/>
<text text-anchor="middle" x="837.5" y="-1205.3" font-family="Times,serif" font-size="14.00" fill="#000000">op_code=call_function</text>
<polyline fill="none" stroke="black" points="689.5,-1197.5 985.5,-1197.5 "/>
<text text-anchor="middle" x="837.5" y="-1182.3" font-family="Times,serif" font-size="14.00" fill="#000000">target=torch.ops.aten.permute.default</text>
<polyline fill="none" stroke="black" points="689.5,-1174.5 985.5,-1174.5 "/>
<text text-anchor="middle" x="837.5" y="-1159.3" font-family="Times,serif" font-size="14.00" fill="#000000">args=([1, 0],)</text>
<polyline fill="none" stroke="black" points="689.5,-1151.5 985.5,-1151.5 "/>
<text text-anchor="middle" x="837.5" y="-1136.3" font-family="Times,serif" font-size="14.00" fill="#000000">num_users=1</text>
<polyline fill="none" stroke="black" points="689.5,-1128.5 985.5,-1128.5 "/>
<text text-anchor="middle" x="837.5" y="-1113.3" font-family="Times,serif" font-size="14.00" fill="#000000">dtype=torch.float32</text>
<polyline fill="none" stroke="black" points="689.5,-1105.5 985.5,-1105.5 "/>
<text text-anchor="middle" x="837.5" y="-1090.3" font-family="Times,serif" font-size="14.00" fill="#000000">shape=(1, 1)</text>
<polyline fill="none" stroke="black" points="689.5,-1082.5 985.5,-1082.5 "/>
<text text-anchor="middle" x="837.5" y="-1067.3" font-family="Times,serif" font-size="14.00" fill="#000000">requires_grad=False</text>
<polyline fill="none" stroke="black" points="689.5,-1059.5 985.5,-1059.5 "/>
<text text-anchor="middle" x="837.5" y="-1044.3" font-family="Times,serif" font-size="14.00" fill="#000000">stride=(1, 1)</text>
</g>
<!-- primals_1&#45;&gt;permute_1 -->
<g id="edge2" class="edge">
<title>primals_1&#45;&gt;permute_1</title>
<path fill="none" stroke="black" d="M671.13,-1293.78C686.17,-1279.97 702.09,-1265.35 717.89,-1250.84"/>
<polygon fill="black" stroke="black" points="720.64,-1253.07 725.63,-1243.73 715.9,-1247.92 720.64,-1253.07"/>
</g>
<!-- primals_2 -->
<g id="node2" class="node">
<title>primals_2</title>
<path fill="AliceBlue" stroke="black" d="M514,-1048C514,-1048 659,-1048 659,-1048 665,-1048 671,-1054 671,-1060 671,-1060 671,-1220 671,-1220 671,-1226 665,-1232 659,-1232 659,-1232 514,-1232 514,-1232 508,-1232 502,-1226 502,-1220 502,-1220 502,-1060 502,-1060 502,-1054 508,-1048 514,-1048"/>
<text text-anchor="middle" x="586.5" y="-1216.8" font-family="Times,serif" font-size="14.00" fill="#000000">name=%primals_2</text>
<polyline fill="none" stroke="black" points="502,-1209 671,-1209 "/>
<text text-anchor="middle" x="586.5" y="-1193.8" font-family="Times,serif" font-size="14.00" fill="#000000">op_code=placeholder</text>
<polyline fill="none" stroke="black" points="502,-1186 671,-1186 "/>
<text text-anchor="middle" x="586.5" y="-1170.8" font-family="Times,serif" font-size="14.00" fill="#000000">target=primals_2</text>
<polyline fill="none" stroke="black" points="502,-1163 671,-1163 "/>
<text text-anchor="middle" x="586.5" y="-1147.8" font-family="Times,serif" font-size="14.00" fill="#000000">num_users=2</text>
<polyline fill="none" stroke="black" points="502,-1140 671,-1140 "/>
<text text-anchor="middle" x="586.5" y="-1124.8" font-family="Times,serif" font-size="14.00" fill="#000000">dtype=torch.float32</text>
<polyline fill="none" stroke="black" points="502,-1117 671,-1117 "/>
<text text-anchor="middle" x="586.5" y="-1101.8" font-family="Times,serif" font-size="14.00" fill="#000000">shape=(1,)</text>
<polyline fill="none" stroke="black" points="502,-1094 671,-1094 "/>
<text text-anchor="middle" x="586.5" y="-1078.8" font-family="Times,serif" font-size="14.00" fill="#000000">requires_grad=True</text>
<polyline fill="none" stroke="black" points="502,-1071 671,-1071 "/>
<text text-anchor="middle" x="586.5" y="-1055.8" font-family="Times,serif" font-size="14.00" fill="#000000">stride=(1,)</text>
</g>
<!-- addmm -->
<g id="node5" class="node">
<title>addmm</title>
<path fill="#ffe1ff" stroke="black" d="M150.5,-815.5C150.5,-815.5 414.5,-815.5 414.5,-815.5 420.5,-815.5 426.5,-821.5 426.5,-827.5 426.5,-827.5 426.5,-987.5 426.5,-987.5 426.5,-993.5 420.5,-999.5 414.5,-999.5 414.5,-999.5 150.5,-999.5 150.5,-999.5 144.5,-999.5 138.5,-993.5 138.5,-987.5 138.5,-987.5 138.5,-827.5 138.5,-827.5 138.5,-821.5 144.5,-815.5 150.5,-815.5"/>
<text text-anchor="middle" x="282.5" y="-984.3" font-family="Times,serif" font-size="14.00" fill="#000000">name=%addmm</text>
<polyline fill="none" stroke="black" points="138.5,-976.5 426.5,-976.5 "/>
<text text-anchor="middle" x="282.5" y="-961.3" font-family="Times,serif" font-size="14.00" fill="#000000">op_code=call_function</text>
<polyline fill="none" stroke="black" points="138.5,-953.5 426.5,-953.5 "/>
<text text-anchor="middle" x="282.5" y="-938.3" font-family="Times,serif" font-size="14.00" fill="#000000">target=torch.ops.aten.addmm.default</text>
<polyline fill="none" stroke="black" points="138.5,-930.5 426.5,-930.5 "/>
<text text-anchor="middle" x="282.5" y="-915.3" font-family="Times,serif" font-size="14.00" fill="#000000">num_users=2</text>
<polyline fill="none" stroke="black" points="138.5,-907.5 426.5,-907.5 "/>
<text text-anchor="middle" x="282.5" y="-892.3" font-family="Times,serif" font-size="14.00" fill="#000000">dtype=torch.float32</text>
<polyline fill="none" stroke="black" points="138.5,-884.5 426.5,-884.5 "/>
<text text-anchor="middle" x="282.5" y="-869.3" font-family="Times,serif" font-size="14.00" fill="#000000">shape=(2000, 1)</text>
<polyline fill="none" stroke="black" points="138.5,-861.5 426.5,-861.5 "/>
<text text-anchor="middle" x="282.5" y="-846.3" font-family="Times,serif" font-size="14.00" fill="#000000">requires_grad=False</text>
<polyline fill="none" stroke="black" points="138.5,-838.5 426.5,-838.5 "/>
<text text-anchor="middle" x="282.5" y="-823.3" font-family="Times,serif" font-size="14.00" fill="#000000">stride=(1, 1)</text>
</g>
<!-- primals_2&#45;&gt;addmm -->
<g id="edge3" class="edge">
<title>primals_2&#45;&gt;addmm</title>
<path fill="none" stroke="black" d="M506.16,-1047.89C501.65,-1043.76 497.08,-1039.77 492.5,-1036 489.06,-1033.17 465.45,-1018.58 435.22,-1000.21"/>
<polygon fill="black" stroke="black" points="436.89,-997.14 426.53,-994.94 433.26,-1003.12 436.89,-997.14"/>
</g>
<!-- addmm_1 -->
<g id="node9" class="node">
<title>addmm_1</title>
<path fill="#ffe1ff" stroke="black" d="M456.5,-815.5C456.5,-815.5 720.5,-815.5 720.5,-815.5 726.5,-815.5 732.5,-821.5 732.5,-827.5 732.5,-827.5 732.5,-987.5 732.5,-987.5 732.5,-993.5 726.5,-999.5 720.5,-999.5 720.5,-999.5 456.5,-999.5 456.5,-999.5 450.5,-999.5 444.5,-993.5 444.5,-987.5 444.5,-987.5 444.5,-827.5 444.5,-827.5 444.5,-821.5 450.5,-815.5 456.5,-815.5"/>
<text text-anchor="middle" x="588.5" y="-984.3" font-family="Times,serif" font-size="14.00" fill="#000000">name=%addmm_1</text>
<polyline fill="none" stroke="black" points="444.5,-976.5 732.5,-976.5 "/>
<text text-anchor="middle" x="588.5" y="-961.3" font-family="Times,serif" font-size="14.00" fill="#000000">op_code=call_function</text>
<polyline fill="none" stroke="black" points="444.5,-953.5 732.5,-953.5 "/>
<text text-anchor="middle" x="588.5" y="-938.3" font-family="Times,serif" font-size="14.00" fill="#000000">target=torch.ops.aten.addmm.default</text>
<polyline fill="none" stroke="black" points="444.5,-930.5 732.5,-930.5 "/>
<text text-anchor="middle" x="588.5" y="-915.3" font-family="Times,serif" font-size="14.00" fill="#000000">num_users=2</text>
<polyline fill="none" stroke="black" points="444.5,-907.5 732.5,-907.5 "/>
<text text-anchor="middle" x="588.5" y="-892.3" font-family="Times,serif" font-size="14.00" fill="#000000">dtype=torch.float32</text>
<polyline fill="none" stroke="black" points="444.5,-884.5 732.5,-884.5 "/>
<text text-anchor="middle" x="588.5" y="-869.3" font-family="Times,serif" font-size="14.00" fill="#000000">shape=(2000, 1)</text>
<polyline fill="none" stroke="black" points="444.5,-861.5 732.5,-861.5 "/>
<text text-anchor="middle" x="588.5" y="-846.3" font-family="Times,serif" font-size="14.00" fill="#000000">requires_grad=False</text>
<polyline fill="none" stroke="black" points="444.5,-838.5 732.5,-838.5 "/>
<text text-anchor="middle" x="588.5" y="-823.3" font-family="Times,serif" font-size="14.00" fill="#000000">stride=(1, 1)</text>
</g>
<!-- primals_2&#45;&gt;addmm_1 -->
<g id="edge4" class="edge">
<title>primals_2&#45;&gt;addmm_1</title>
<path fill="none" stroke="black" d="M587.29,-1047.9C587.4,-1035.39 587.51,-1022.48 587.62,-1009.8"/>
<polygon fill="black" stroke="black" points="591.12,-1009.72 587.71,-999.69 584.12,-1009.66 591.12,-1009.72"/>
</g>
<!-- primals_3 -->
<g id="node3" class="node">
<title>primals_3</title>
<path fill="AliceBlue" stroke="black" d="M12,-1048C12,-1048 157,-1048 157,-1048 163,-1048 169,-1054 169,-1060 169,-1060 169,-1220 169,-1220 169,-1226 163,-1232 157,-1232 157,-1232 12,-1232 12,-1232 6,-1232 0,-1226 0,-1220 0,-1220 0,-1060 0,-1060 0,-1054 6,-1048 12,-1048"/>
<text text-anchor="middle" x="84.5" y="-1216.8" font-family="Times,serif" font-size="14.00" fill="#000000">name=%primals_3</text>
<polyline fill="none" stroke="black" points="0,-1209 169,-1209 "/>
<text text-anchor="middle" x="84.5" y="-1193.8" font-family="Times,serif" font-size="14.00" fill="#000000">op_code=placeholder</text>
<polyline fill="none" stroke="black" points="0,-1186 169,-1186 "/>
<text text-anchor="middle" x="84.5" y="-1170.8" font-family="Times,serif" font-size="14.00" fill="#000000">target=primals_3</text>
<polyline fill="none" stroke="black" points="0,-1163 169,-1163 "/>
<text text-anchor="middle" x="84.5" y="-1147.8" font-family="Times,serif" font-size="14.00" fill="#000000">num_users=3</text>
<polyline fill="none" stroke="black" points="0,-1140 169,-1140 "/>
<text text-anchor="middle" x="84.5" y="-1124.8" font-family="Times,serif" font-size="14.00" fill="#000000">dtype=torch.float32</text>
<polyline fill="none" stroke="black" points="0,-1117 169,-1117 "/>
<text text-anchor="middle" x="84.5" y="-1101.8" font-family="Times,serif" font-size="14.00" fill="#000000">shape=(2000, 1)</text>
<polyline fill="none" stroke="black" points="0,-1094 169,-1094 "/>
<text text-anchor="middle" x="84.5" y="-1078.8" font-family="Times,serif" font-size="14.00" fill="#000000">requires_grad=False</text>
<polyline fill="none" stroke="black" points="0,-1071 169,-1071 "/>
<text text-anchor="middle" x="84.5" y="-1055.8" font-family="Times,serif" font-size="14.00" fill="#000000">stride=(1, 1)</text>
</g>
<!-- primals_3&#45;&gt;addmm -->
<g id="edge5" class="edge">
<title>primals_3&#45;&gt;addmm</title>
<path fill="none" stroke="black" d="M162.75,-1047.9C174.14,-1034.65 185.91,-1020.95 197.42,-1007.54"/>
<polygon fill="black" stroke="black" points="200.3,-1009.56 204.17,-999.69 194.99,-1005 200.3,-1009.56"/>
</g>
<!-- primals_3&#45;&gt;addmm_1 -->
<g id="edge6" class="edge">
<title>primals_3&#45;&gt;addmm_1</title>
<path fill="none" stroke="black" d="M159.91,-1047.83C165.87,-1043.39 172.08,-1039.39 178.5,-1036 277.74,-983.69 324.16,-1035.37 434.78,-999.94"/>
<polygon fill="black" stroke="black" points="435.91,-1003.25 444.27,-996.74 433.67,-996.62 435.91,-1003.25"/>
</g>
<!-- output -->
<g id="node12" class="node">
<title>output</title>
<path fill="PowderBlue" stroke="black" d="M150,-0.5C150,-0.5 259,-0.5 259,-0.5 265,-0.5 271,-6.5 271,-12.5 271,-12.5 271,-80.5 271,-80.5 271,-86.5 265,-92.5 259,-92.5 259,-92.5 150,-92.5 150,-92.5 144,-92.5 138,-86.5 138,-80.5 138,-80.5 138,-12.5 138,-12.5 138,-6.5 144,-0.5 150,-0.5"/>
<text text-anchor="middle" x="204.5" y="-77.3" font-family="Times,serif" font-size="14.00" fill="#000000">name=%output</text>
<polyline fill="none" stroke="black" points="138,-69.5 271,-69.5 "/>
<text text-anchor="middle" x="204.5" y="-54.3" font-family="Times,serif" font-size="14.00" fill="#000000">op_code=output</text>
<polyline fill="none" stroke="black" points="138,-46.5 271,-46.5 "/>
<text text-anchor="middle" x="204.5" y="-31.3" font-family="Times,serif" font-size="14.00" fill="#000000">target=output</text>
<polyline fill="none" stroke="black" points="138,-23.5 271,-23.5 "/>
<text text-anchor="middle" x="204.5" y="-8.3" font-family="Times,serif" font-size="14.00" fill="#000000">num_users=0</text>
</g>
<!-- primals_3&#45;&gt;output -->
<g id="edge7" class="edge">
<title>primals_3&#45;&gt;output</title>
<path fill="none" stroke="black" d="M84.5,-1047.77C84.5,-956.57 84.5,-812.33 84.5,-687.5 84.5,-687.5 84.5,-687.5 84.5,-453 84.5,-308.67 40.82,-257.52 106.5,-129 112.48,-117.3 120.95,-106.65 130.45,-97.18"/>
<polygon fill="black" stroke="black" points="133,-99.58 137.88,-90.17 128.2,-94.48 133,-99.58"/>
</g>
<!-- permute&#45;&gt;addmm -->
<g id="edge8" class="edge">
<title>permute&#45;&gt;addmm</title>
<path fill="none" stroke="black" d="M311.87,-1036.22C309.84,-1027.41 307.79,-1018.5 305.77,-1009.71"/>
<polygon fill="black" stroke="black" points="309.15,-1008.79 303.5,-999.83 302.33,-1010.36 309.15,-1008.79"/>
</g>
<!-- sin -->
<g id="node6" class="node">
<title>sin</title>
<path fill="Salmon" stroke="black" d="M164.5,-594.5C164.5,-594.5 406.5,-594.5 406.5,-594.5 412.5,-594.5 418.5,-600.5 418.5,-606.5 418.5,-606.5 418.5,-766.5 418.5,-766.5 418.5,-772.5 412.5,-778.5 406.5,-778.5 406.5,-778.5 164.5,-778.5 164.5,-778.5 158.5,-778.5 152.5,-772.5 152.5,-766.5 152.5,-766.5 152.5,-606.5 152.5,-606.5 152.5,-600.5 158.5,-594.5 164.5,-594.5"/>
<text text-anchor="middle" x="285.5" y="-763.3" font-family="Times,serif" font-size="14.00" fill="#000000">name=%sin</text>
<polyline fill="none" stroke="black" points="152.5,-755.5 418.5,-755.5 "/>
<text text-anchor="middle" x="285.5" y="-740.3" font-family="Times,serif" font-size="14.00" fill="#000000">op_code=call_function</text>
<polyline fill="none" stroke="black" points="152.5,-732.5 418.5,-732.5 "/>
<text text-anchor="middle" x="285.5" y="-717.3" font-family="Times,serif" font-size="14.00" fill="#000000">target=torch.ops.prims.sin.default</text>
<polyline fill="none" stroke="black" points="152.5,-709.5 418.5,-709.5 "/>
<text text-anchor="middle" x="285.5" y="-694.3" font-family="Times,serif" font-size="14.00" fill="#000000">num_users=1</text>
<polyline fill="none" stroke="black" points="152.5,-686.5 418.5,-686.5 "/>
<text text-anchor="middle" x="285.5" y="-671.3" font-family="Times,serif" font-size="14.00" fill="#000000">dtype=torch.float32</text>
<polyline fill="none" stroke="black" points="152.5,-663.5 418.5,-663.5 "/>
<text text-anchor="middle" x="285.5" y="-648.3" font-family="Times,serif" font-size="14.00" fill="#000000">shape=(2000, 1)</text>
<polyline fill="none" stroke="black" points="152.5,-640.5 418.5,-640.5 "/>
<text text-anchor="middle" x="285.5" y="-625.3" font-family="Times,serif" font-size="14.00" fill="#000000">requires_grad=False</text>
<polyline fill="none" stroke="black" points="152.5,-617.5 418.5,-617.5 "/>
<text text-anchor="middle" x="285.5" y="-602.3" font-family="Times,serif" font-size="14.00" fill="#000000">stride=(1, 1)</text>
</g>
<!-- addmm&#45;&gt;sin -->
<g id="edge9" class="edge">
<title>addmm&#45;&gt;sin</title>
<path fill="none" stroke="black" d="M283.75,-815.21C283.87,-806.52 283.99,-797.68 284.11,-788.9"/>
<polygon fill="black" stroke="black" points="287.61,-788.69 284.25,-778.64 280.61,-788.59 287.61,-788.69"/>
</g>
<!-- addmm&#45;&gt;output -->
<g id="edge10" class="edge">
<title>addmm&#45;&gt;output</title>
<path fill="none" stroke="black" d="M165.84,-815.3C156.95,-804 149.23,-791.86 143.5,-779 84.76,-647.04 96.04,-265.77 142.5,-129 145.79,-119.3 150.74,-109.85 156.44,-101.01"/>
<polygon fill="black" stroke="black" points="159.34,-102.97 162.09,-92.74 153.56,-99.02 159.34,-102.97"/>
</g>
<!-- mul -->
<g id="node7" class="node">
<title>mul</title>
<path fill="#cdb5cd" stroke="black" d="M162.5,-350.5C162.5,-350.5 410.5,-350.5 410.5,-350.5 416.5,-350.5 422.5,-356.5 422.5,-362.5 422.5,-362.5 422.5,-545.5 422.5,-545.5 422.5,-551.5 416.5,-557.5 410.5,-557.5 410.5,-557.5 162.5,-557.5 162.5,-557.5 156.5,-557.5 150.5,-551.5 150.5,-545.5 150.5,-545.5 150.5,-362.5 150.5,-362.5 150.5,-356.5 156.5,-350.5 162.5,-350.5"/>
<text text-anchor="middle" x="286.5" y="-542.3" font-family="Times,serif" font-size="14.00" fill="#000000">name=%mul</text>
<polyline fill="none" stroke="black" points="150.5,-534.5 422.5,-534.5 "/>
<text text-anchor="middle" x="286.5" y="-519.3" font-family="Times,serif" font-size="14.00" fill="#000000">op_code=call_function</text>
<polyline fill="none" stroke="black" points="150.5,-511.5 422.5,-511.5 "/>
<text text-anchor="middle" x="286.5" y="-496.3" font-family="Times,serif" font-size="14.00" fill="#000000">target=torch.ops.prims.mul.default</text>
<polyline fill="none" stroke="black" points="150.5,-488.5 422.5,-488.5 "/>
<text text-anchor="middle" x="286.5" y="-473.3" font-family="Times,serif" font-size="14.00" fill="#000000">args=(2.0,)</text>
<polyline fill="none" stroke="black" points="150.5,-465.5 422.5,-465.5 "/>
<text text-anchor="middle" x="286.5" y="-450.3" font-family="Times,serif" font-size="14.00" fill="#000000">num_users=1</text>
<polyline fill="none" stroke="black" points="150.5,-442.5 422.5,-442.5 "/>
<text text-anchor="middle" x="286.5" y="-427.3" font-family="Times,serif" font-size="14.00" fill="#000000">dtype=torch.float32</text>
<polyline fill="none" stroke="black" points="150.5,-419.5 422.5,-419.5 "/>
<text text-anchor="middle" x="286.5" y="-404.3" font-family="Times,serif" font-size="14.00" fill="#000000">shape=(2000, 1)</text>
<polyline fill="none" stroke="black" points="150.5,-396.5 422.5,-396.5 "/>
<text text-anchor="middle" x="286.5" y="-381.3" font-family="Times,serif" font-size="14.00" fill="#000000">requires_grad=False</text>
<polyline fill="none" stroke="black" points="150.5,-373.5 422.5,-373.5 "/>
<text text-anchor="middle" x="286.5" y="-358.3" font-family="Times,serif" font-size="14.00" fill="#000000">stride=(1, 1)</text>
</g>
<!-- sin&#45;&gt;mul -->
<g id="edge11" class="edge">
<title>sin&#45;&gt;mul</title>
<path fill="none" stroke="black" d="M285.9,-594.4C285.93,-585.62 285.97,-576.65 286.01,-567.7"/>
<polygon fill="black" stroke="black" points="289.51,-567.63 286.05,-557.61 282.51,-567.6 289.51,-567.63"/>
</g>
<!-- add -->
<g id="node11" class="node">
<title>add</title>
<path fill="#98f5ff" stroke="black" d="M163,-129.5C163,-129.5 410,-129.5 410,-129.5 416,-129.5 422,-135.5 422,-141.5 422,-141.5 422,-301.5 422,-301.5 422,-307.5 416,-313.5 410,-313.5 410,-313.5 163,-313.5 163,-313.5 157,-313.5 151,-307.5 151,-301.5 151,-301.5 151,-141.5 151,-141.5 151,-135.5 157,-129.5 163,-129.5"/>
<text text-anchor="middle" x="286.5" y="-298.3" font-family="Times,serif" font-size="14.00" fill="#000000">name=%add</text>
<polyline fill="none" stroke="black" points="151,-290.5 422,-290.5 "/>
<text text-anchor="middle" x="286.5" y="-275.3" font-family="Times,serif" font-size="14.00" fill="#000000">op_code=call_function</text>
<polyline fill="none" stroke="black" points="151,-267.5 422,-267.5 "/>
<text text-anchor="middle" x="286.5" y="-252.3" font-family="Times,serif" font-size="14.00" fill="#000000">target=torch.ops.prims.add.default</text>
<polyline fill="none" stroke="black" points="151,-244.5 422,-244.5 "/>
<text text-anchor="middle" x="286.5" y="-229.3" font-family="Times,serif" font-size="14.00" fill="#000000">num_users=1</text>
<polyline fill="none" stroke="black" points="151,-221.5 422,-221.5 "/>
<text text-anchor="middle" x="286.5" y="-206.3" font-family="Times,serif" font-size="14.00" fill="#000000">dtype=torch.float32</text>
<polyline fill="none" stroke="black" points="151,-198.5 422,-198.5 "/>
<text text-anchor="middle" x="286.5" y="-183.3" font-family="Times,serif" font-size="14.00" fill="#000000">shape=(2000, 1)</text>
<polyline fill="none" stroke="black" points="151,-175.5 422,-175.5 "/>
<text text-anchor="middle" x="286.5" y="-160.3" font-family="Times,serif" font-size="14.00" fill="#000000">requires_grad=False</text>
<polyline fill="none" stroke="black" points="151,-152.5 422,-152.5 "/>
<text text-anchor="middle" x="286.5" y="-137.3" font-family="Times,serif" font-size="14.00" fill="#000000">stride=(1, 1)</text>
</g>
<!-- mul&#45;&gt;add -->
<g id="edge12" class="edge">
<title>mul&#45;&gt;add</title>
<path fill="none" stroke="black" d="M286.5,-350.22C286.5,-341.51 286.5,-332.69 286.5,-323.99"/>
<polygon fill="black" stroke="black" points="290,-323.83 286.5,-313.83 283,-323.83 290,-323.83"/>
</g>
<!-- permute_1&#45;&gt;addmm_1 -->
<g id="edge13" class="edge">
<title>permute_1&#45;&gt;addmm_1</title>
<path fill="none" stroke="black" d="M726.47,-1036.22C715.93,-1026.46 705.26,-1016.59 694.77,-1006.87"/>
<polygon fill="black" stroke="black" points="696.88,-1004.06 687.16,-999.83 692.12,-1009.19 696.88,-1004.06"/>
</g>
<!-- cos -->
<g id="node10" class="node">
<title>cos</title>
<path fill="Coral" stroke="black" d="M452.5,-362C452.5,-362 696.5,-362 696.5,-362 702.5,-362 708.5,-368 708.5,-374 708.5,-374 708.5,-534 708.5,-534 708.5,-540 702.5,-546 696.5,-546 696.5,-546 452.5,-546 452.5,-546 446.5,-546 440.5,-540 440.5,-534 440.5,-534 440.5,-374 440.5,-374 440.5,-368 446.5,-362 452.5,-362"/>
<text text-anchor="middle" x="574.5" y="-530.8" font-family="Times,serif" font-size="14.00" fill="#000000">name=%cos</text>
<polyline fill="none" stroke="black" points="440.5,-523 708.5,-523 "/>
<text text-anchor="middle" x="574.5" y="-507.8" font-family="Times,serif" font-size="14.00" fill="#000000">op_code=call_function</text>
<polyline fill="none" stroke="black" points="440.5,-500 708.5,-500 "/>
<text text-anchor="middle" x="574.5" y="-484.8" font-family="Times,serif" font-size="14.00" fill="#000000">target=torch.ops.prims.cos.default</text>
<polyline fill="none" stroke="black" points="440.5,-477 708.5,-477 "/>
<text text-anchor="middle" x="574.5" y="-461.8" font-family="Times,serif" font-size="14.00" fill="#000000">num_users=1</text>
<polyline fill="none" stroke="black" points="440.5,-454 708.5,-454 "/>
<text text-anchor="middle" x="574.5" y="-438.8" font-family="Times,serif" font-size="14.00" fill="#000000">dtype=torch.float32</text>
<polyline fill="none" stroke="black" points="440.5,-431 708.5,-431 "/>
<text text-anchor="middle" x="574.5" y="-415.8" font-family="Times,serif" font-size="14.00" fill="#000000">shape=(2000, 1)</text>
<polyline fill="none" stroke="black" points="440.5,-408 708.5,-408 "/>
<text text-anchor="middle" x="574.5" y="-392.8" font-family="Times,serif" font-size="14.00" fill="#000000">requires_grad=False</text>
<polyline fill="none" stroke="black" points="440.5,-385 708.5,-385 "/>
<text text-anchor="middle" x="574.5" y="-369.8" font-family="Times,serif" font-size="14.00" fill="#000000">stride=(1, 1)</text>
</g>
<!-- addmm_1&#45;&gt;cos -->
<g id="edge14" class="edge">
<title>addmm_1&#45;&gt;cos</title>
<path fill="none" stroke="black" d="M585.68,-815.4C583.35,-740.46 580.06,-634.32 577.65,-556.63"/>
<polygon fill="black" stroke="black" points="581.14,-556.23 577.33,-546.34 574.14,-556.45 581.14,-556.23"/>
</g>
<!-- addmm_1&#45;&gt;output -->
<g id="edge15" class="edge">
<title>addmm_1&#45;&gt;output</title>
<path fill="none" stroke="black" d="M645.61,-815.03C708.85,-701.12 792.58,-502.9 717.5,-350 633.06,-178.03 402.1,-96.53 280.96,-64.63"/>
<polygon fill="black" stroke="black" points="281.57,-61.17 271.01,-62.05 279.82,-67.95 281.57,-61.17"/>
</g>
<!-- cos&#45;&gt;add -->
<g id="edge16" class="edge">
<title>cos&#45;&gt;add</title>
<path fill="none" stroke="black" d="M460.67,-361.9C443.5,-348.15 425.72,-333.92 408.37,-320.04"/>
<polygon fill="black" stroke="black" points="410.44,-317.21 400.44,-313.69 406.06,-322.67 410.44,-317.21"/>
</g>
<!-- add&#45;&gt;output -->
<g id="edge17" class="edge">
<title>add&#45;&gt;output</title>
<path fill="none" stroke="black" d="M243.34,-129.44C238.92,-120.11 234.53,-110.86 230.39,-102.11"/>
<polygon fill="black" stroke="black" points="233.44,-100.37 225.99,-92.84 227.11,-103.37 233.44,-100.37"/>
</g>
</g>
</svg>
