<?xml version="1.0" encoding="UTF-8" standalone="no"?>
<!DOCTYPE svg PUBLIC "-//W3C//DTD SVG 1.1//EN"
 "http://www.w3.org/Graphics/SVG/1.1/DTD/svg11.dtd">
<!-- Generated by graphviz version 2.43.0 (0)
 -->
<!-- Title: fn Pages: 1 -->
<svg width="994pt" height="1473pt"
 viewBox="0.00 0.00 993.50 1473.00" xmlns="http://www.w3.org/2000/svg" xmlns:xlink="http://www.w3.org/1999/xlink">
<g id="graph0" class="graph" transform="scale(1 1) rotate(0) translate(4 1469)">
<title>fn</title>
<polygon fill="white" stroke="transparent" points="-4,4 -4,-1469 989.5,-1469 989.5,4 -4,4"/>
<!-- primals_1 -->
<g id="node1" class="node">
<title>primals_1</title>
<path fill="AliceBlue" stroke="black" d="M514,-1280.5C514,-1280.5 659,-1280.5 659,-1280.5 665,-1280.5 671,-1286.5 671,-1292.5 671,-1292.5 671,-1452.5 671,-1452.5 671,-1458.5 665,-1464.5 659,-1464.5 659,-1464.5 514,-1464.5 514,-1464.5 508,-1464.5 502,-1458.5 502,-1452.5 502,-1452.5 502,-1292.5 502,-1292.5 502,-1286.5 508,-1280.5 514,-1280.5"/>
<text text-anchor="middle" x="586.5" y="-1449.3" font-family="Times,serif" font-size="14.00" fill="#000000">name=%primals_1</text>
<polyline fill="none" stroke="black" points="502,-1441.5 671,-1441.5 "/>
<text text-anchor="middle" x="586.5" y="-1426.3" font-family="Times,serif" font-size="14.00" fill="#000000">op_code=placeholder</text>
<polyline fill="none" stroke="black" points="502,-1418.5 671,-1418.5 "/>
<text text-anchor="middle" x="586.5" y="-1403.3" font-family="Times,serif" font-size="14.00" fill="#000000">target=primals_1</text>
<polyline fill="none" stroke="black" points="502,-1395.5 671,-1395.5 "/>
<text text-anchor="middle" x="586.5" y="-1380.3" font-family="Times,serif" font-size="14.00" fill="#000000">num_users=2</text>
<polyline fill="none" stroke="black" points="502,-1372.5 671,-1372.5 "/>
<text text-anchor="middle" x="586.5" y="-1357.3" font-family="Times,serif" font-size="14.00" fill="#000000">dtype=torch.float32</text>
<polyline fill="none" stroke="black" points="502,-1349.5 671,-1349.5 "/>
<text text-anchor="middle" x="586.5" y="-1334.3" font-family="Times,serif" font-size="14.00" fill="#000000">shape=(1, 1)</text>
<polyline fill="none" stroke="black" points="502,-1326.5 671,-1326.5 "/>
<text text-anchor="middle" x="586.5" y="-1311.3" font-family="Times,serif" font-size="14.00" fill="#000000">requires_grad=True</text>
<polyline fill="none" stroke="black" points="502,-1303.5 671,-1303.5 "/>
<text text-anchor="middle" x="586.5" y="-1288.3" font-family="Times,serif" font-size="14.00" fill="#000000">stride=(1, 1)</text>
</g>
<!-- permute -->
<g id="node4" class="node">
<title>permute</title>
<path fill="#98f5ff" stroke="black" d="M199.5,-1036.5C199.5,-1036.5 471.5,-1036.5 471.5,-1036.5 477.5,-1036.5 483.5,-1042.5 483.5,-1048.5 483.5,-1048.5 483.5,-1231.5 483.5,-1231.5 483.5,-1237.5 477.5,-1243.5 471.5,-1243.5 471.5,-1243.5 199.5,-1243.5 199.5,-1243.5 193.5,-1243.5 187.5,-1237.5 187.5,-1231.5 187.5,-1231.5 187.5,-1048.5 187.5,-1048.5 187.5,-1042.5 193.5,-1036.5 199.5,-1036.5"/>
<text text-anchor="middle" x="335.5" y="-1228.3" font-family="Times,serif" font-size="14.00" fill="#000000">name=%permute</text>
<polyline fill="none" stroke="black" points="187.5,-1220.5 483.5,-1220.5 "/>
<text text-anchor="middle" x="335.5" y="-1205.3" font-family="Times,serif" font-size="14.00" fill="#000000">op_code=call_function</text>
<polyline fill="none" stroke="black" points="187.5,-1197.5 483.5,-1197.5 "/>
<text text-anchor="middle" x="335.5" y="-1182.3" font-family="Times,serif" font-size="14.00" fill="#000000">target=torch.ops.aten.permute.default</text>
<polyline fill="none" stroke="black" points="187.5,-1174.5 483.5,-1174.5 "/>
<text text-anchor="middle" x="335.5" y="-1159.3" font-family="Times,serif" font-size="14.00" fill="#000000">args=([1, 0],)</text>
<polyline fill="none" stroke="black" points="187.5,-1151.5 483.5,-1151.5 "/>
<text text-anchor="middle" x="335.5" y="-1136.3" font-family="Times,serif" font-size="14.00" fill="#000000">num_users=1</text>
<polyline fill="none" stroke="black" points="187.5,-1128.5 483.5,-1128.5 "/>
<text text-anchor="middle" x="335.5" y="-1113.3" font-family="Times,serif" font-size="14.00" fill="#000000">dtype=torch.float32</text>
<polyline fill="none" stroke="black" points="187.5,-1105.5 483.5,-1105.5 "/>
<text text-anchor="middle" x="335.5" y="-1090.3" font-family="Times,serif" font-size="14.00" fill="#000000">shape=(1, 1)</text>
<polyline fill="none" stroke="black" points="187.5,-1082.5 483.5,-1082.5 "/>
<text text-anchor="middle" x="335.5" y="-1067.3" font-family="Times,serif" font-size="14.00" fill="#000000">requires_grad=False</text>
<polyline fill="none" stroke="black" points="187.5,-1059.5 483.5,-1059.5 "/>
<text text-anchor="middle" x="335.5" y="-1044.3" font-family="Times,serif" font-size="14.00" fill="#000000">stride=(1, 1)</text>
</g>
<!-- primals_1&#45;&gt;permute -->
<g id="edge1" class="edge">
<title>primals_1&#45;&gt;permute</title>
<path fill="none" stroke="black" d="M501.87,-1293.78C486.83,-1279.97 470.91,-1265.35 455.11,-1250.84"/>
<polygon fill="black" stroke="black" points="457.1,-1247.92 447.37,-1243.73 452.36,-1253.07 457.1,-1247.92"/>
</g>
<!-- permute_1 -->
<g id="node8" class="node">
<title>permute_1</title>
<path fill="#98f5ff" stroke="black" d="M701.5,-1036.5C701.5,-1036.5 973.5,-1036.5 973.5,-1036.5 979.5,-1036.5 985.5,-1042.5 985.5,-1048.5 985.5,-1048.5 985.5,-1231.5 985.5,-1231.5 985.5,-1237.5 979.5,-1243.5 973.5,-1243.5 973.5,-1243.5 701.5,-1243.5 701.5,-1243.5 695.5,-1243.5 689.5,-1237.5 689.5,-1231.5 689.5,-1231.5 689.5,-1048.5 689.5,-1048.5 689.5,-1042.5 695.5,-1036.5 701.5,-1036.5"/>
<text text-anchor="middle" x="837.5" y="-1228.3" font-family="Times,serif" font-size="14.00" fill="#000000">name=%permute_1</text>
<polyline fill="none" stroke="black" points="689.5,-1220.5 985.5,-1220.5 "/>
<text text-anchor="middle" x="837.5" y="-1205.3" font-family="Times,serif" font-size="14.00" fill="#000000">op_code=call_function</text>
<polyline fill="none" stroke="black" points="689.5,-1197.5 985.5,-1197.5 "/>
<text text-anchor="middle" x="837.5" y="-1182.3" font-family="Times,serif" font-size="14.00" fill="#000000">target=torch.ops.aten.permute.default</text>
<polyline fill="none" stroke="black" points="689.5,-1174.5 985.5,-1174.5 "/>
<text text-anchor="middle" x="837.5" y="-1159.3" font-family="Times,serif" font-size="14.00" fill="#000000">args=([1, 0],)</text>
<polyline fill="none" stroke="black" points="689.5,-1151.5 985.5,-1151.5 "/>
<text text-anchor="middle" x="837.5" y="-1136.3" font-family="Times,serif" font-size="14.00" fill="#000000">num_users=1</text>
<polyline fill="none" stroke="black" points="689.5,-1128.5 985.5,-1128.5 "/>
<text text-anchor="middle" x="837.5" y="-1113.3" font-family="Times,serif" font-size="14.00" fill="#000000">dtype=torch.float32</text>
<polyline fill="none" stroke="black" points="689.5,-1105.5 985.5,-1105.5 "/>
<text text-anchor="middle" x="837.5" y="-1090.3" font-family="Times,serif" font-size="14.00" fill="#000000">shape=(1, 1)</text>
<polyline fill="none" stroke="black" points="689.5,-1082.5 985.5,-1082.5 "/>
<text text-anchor="middle" x="837.5" y="-1067.3" font-family="Times,serif" font-size="14.00" fill="#000000">requires_grad=False</text>
<polyline fill="none" stroke="black" points="689.5,-1059.5 985.5,-1059.5 "/>
<text text-anchor="middle" x="837.5" y="-1044.3" font-family="Times,serif" font-size="14.00" fill="#000000">stride=(1, 1)</text>
</g>
<!-- primals_1&#45;&gt;permute_1 -->
<g id="edge2" class="edge">
<title>primals_1&#45;&gt;permute_1</title>
<path fill="none" stroke="black" d="M671.13,-1293.78C686.17,-1279.97 702.09,-1265.35 717.89,-1250.84"/>
<polygon fill="black" stroke="black" points="720.64,-1253.07 725.63,-1243.73 715.9,-1247.92 720.64,-1253.07"/>
</g>
<!-- primals_2 -->
<g id="node2" class="node">
<title>primals_2</title>
<path fill="AliceBlue" stroke="black" d="M514,-1048C514,-1048 659,-1048 659,-1048 665,-1048 671,-1054 671,-1060 671,-1060 671,-1220 671,-1220 671,-1226 665,-1232 659,-1232 659,-1232 514,-1232 514,-1232 508,-1232 502,-1226 502,-1220 502,-1220 502,-1060 502,-1060 502,-1054 508,-1048 514,-1048"/>
<text text-anchor="middle" x="586.5" y="-1216.8" font-family="Times,serif" font-size="14.00" fill="#000000">name=%primals_2</text>
<polyline fill="none" stroke="black" points="502,-1209 671,-1209 "/>
<text text-anchor="middle" x="586.5" y="-1193.8" font-family="Times,serif" font-size="14.00" fill="#000000">op_code=placeholder</text>
<polyline fill="none" stroke="black" points="502,-1186 671,-1186 "/>
<text text-anchor="middle" x="586.5" y="-1170.8" font-family="Times,serif" font-size="14.00" fill="#000000">target=primals_2</text>
<polyline fill="none" stroke="black" points="502,-1163 671,-1163 "/>
<text text-anchor="middle" x="586.5" y="-1147.8" font-family="Times,serif" font-size="14.00" fill="#000000">num_users=2</text>
<polyline fill="none" stroke="black" points="502,-1140 671,-1140 "/>
<text text-anchor="middle" x="586.5" y="-1124.8" font-family="Times,serif" font-size="14.00" fill="#000000">dtype=torch.float32</text>
<polyline fill="none" stroke="black" points="502,-1117 671,-1117 "/>
<text text-anchor="middle" x="586.5" y="-1101.8" font-family="Times,serif" font-size="14.00" fill="#000000">shape=(1,)</text>
<polyline fill="none" stroke="black" points="502,-1094 671,-1094 "/>
<text text-anchor="middle" x="586.5" y="-1078.8" font-family="Times,serif" font-size="14.00" fill="#000000">requires_grad=True</text>
<polyline fill="none" stroke="black" points="502,-1071 671,-1071 "/>
<text text-anchor="middle" x="586.5" y="-1055.8" font-family="Times,serif" font-size="14.00" fill="#000000">stride=(1,)</text>
</g>
<!-- addmm -->
<g id="node5" class="node">
<title>addmm</title>
<path fill="#ffe1ff" stroke="black" d="M148.5,-815.5C148.5,-815.5 412.5,-815.5 412.5,-815.5 418.5,-815.5 424.5,-821.5 424.5,-827.5 424.5,-827.5 424.5,-987.5 424.5,-987.5 424.5,-993.5 418.5,-999.5 412.5,-999.5 412.5,-999.5 148.5,-999.5 148.5,-999.5 142.5,-999.5 136.5,-993.5 136.5,-987.5 136.5,-987.5 136.5,-827.5 136.5,-827.5 136.5,-821.5 142.5,-815.5 148.5,-815.5"/>
<text text-anchor="middle" x="280.5" y="-984.3" font-family="Times,serif" font-size="14.00" fill="#000000">name=%addmm</text>
<polyline fill="none" stroke="black" points="136.5,-976.5 424.5,-976.5 "/>
<text text-anchor="middle" x="280.5" y="-961.3" font-family="Times,serif" font-size="14.00" fill="#000000">op_code=call_function</text>
<polyline fill="none" stroke="black" points="136.5,-953.5 424.5,-953.5 "/>
<text text-anchor="middle" x="280.5" y="-938.3" font-family="Times,serif" font-size="14.00" fill="#000000">target=torch.ops.aten.addmm.default</text>
<polyline fill="none" stroke="black" points="136.5,-930.5 424.5,-930.5 "/>
<text text-anchor="middle" x="280.5" y="-915.3" font-family="Times,serif" font-size="14.00" fill="#000000">num_users=2</text>
<polyline fill="none" stroke="black" points="136.5,-907.5 424.5,-907.5 "/>
<text text-anchor="middle" x="280.5" y="-892.3" font-family="Times,serif" font-size="14.00" fill="#000000">dtype=torch.float32</text>
<polyline fill="none" stroke="black" points="136.5,-884.5 424.5,-884.5 "/>
<text text-anchor="middle" x="280.5" y="-869.3" font-family="Times,serif" font-size="14.00" fill="#000000">shape=(2000, 1)</text>
<polyline fill="none" stroke="black" points="136.5,-861.5 424.5,-861.5 "/>
<text text-anchor="middle" x="280.5" y="-846.3" font-family="Times,serif" font-size="14.00" fill="#000000">requires_grad=False</text>
<polyline fill="none" stroke="black" points="136.5,-838.5 424.5,-838.5 "/>
<text text-anchor="middle" x="280.5" y="-823.3" font-family="Times,serif" font-size="14.00" fill="#000000">stride=(1, 1)</text>
</g>
<!-- primals_2&#45;&gt;addmm -->
<g id="edge3" class="edge">
<title>primals_2&#45;&gt;addmm</title>
<path fill="none" stroke="black" d="M506.18,-1047.87C501.66,-1043.74 497.09,-1039.76 492.5,-1036 490.69,-1034.52 465.64,-1019.33 433.35,-999.91"/>
<polygon fill="black" stroke="black" points="434.91,-996.76 424.53,-994.61 431.3,-1002.76 434.91,-996.76"/>
</g>
<!-- addmm_1 -->
<g id="node9" class="node">
<title>addmm_1</title>
<path fill="#ffe1ff" stroke="black" d="M454.5,-815.5C454.5,-815.5 718.5,-815.5 718.5,-815.5 724.5,-815.5 730.5,-821.5 730.5,-827.5 730.5,-827.5 730.5,-987.5 730.5,-987.5 730.5,-993.5 724.5,-999.5 718.5,-999.5 718.5,-999.5 454.5,-999.5 454.5,-999.5 448.5,-999.5 442.5,-993.5 442.5,-987.5 442.5,-987.5 442.5,-827.5 442.5,-827.5 442.5,-821.5 448.5,-815.5 454.5,-815.5"/>
<text text-anchor="middle" x="586.5" y="-984.3" font-family="Times,serif" font-size="14.00" fill="#000000">name=%addmm_1</text>
<polyline fill="none" stroke="black" points="442.5,-976.5 730.5,-976.5 "/>
<text text-anchor="middle" x="586.5" y="-961.3" font-family="Times,serif" font-size="14.00" fill="#000000">op_code=call_function</text>
<polyline fill="none" stroke="black" points="442.5,-953.5 730.5,-953.5 "/>
<text text-anchor="middle" x="586.5" y="-938.3" font-family="Times,serif" font-size="14.00" fill="#000000">target=torch.ops.aten.addmm.default</text>
<polyline fill="none" stroke="black" points="442.5,-930.5 730.5,-930.5 "/>
<text text-anchor="middle" x="586.5" y="-915.3" font-family="Times,serif" font-size="14.00" fill="#000000">num_users=2</text>
<polyline fill="none" stroke="black" points="442.5,-907.5 730.5,-907.5 "/>
<text text-anchor="middle" x="586.5" y="-892.3" font-family="Times,serif" font-size="14.00" fill="#000000">dtype=torch.float32</text>
<polyline fill="none" stroke="black" points="442.5,-884.5 730.5,-884.5 "/>
<text text-anchor="middle" x="586.5" y="-869.3" font-family="Times,serif" font-size="14.00" fill="#000000">shape=(2000, 1)</text>
<polyline fill="none" stroke="black" points="442.5,-861.5 730.5,-861.5 "/>
<text text-anchor="middle" x="586.5" y="-846.3" font-family="Times,serif" font-size="14.00" fill="#000000">requires_grad=False</text>
<polyline fill="none" stroke="black" points="442.5,-838.5 730.5,-838.5 "/>
<text text-anchor="middle" x="586.5" y="-823.3" font-family="Times,serif" font-size="14.00" fill="#000000">stride=(1, 1)</text>
</g>
<!-- primals_2&#45;&gt;addmm_1 -->
<g id="edge4" class="edge">
<title>primals_2&#45;&gt;addmm_1</title>
<path fill="none" stroke="black" d="M586.5,-1047.9C586.5,-1035.39 586.5,-1022.48 586.5,-1009.8"/>
<polygon fill="black" stroke="black" points="590,-1009.69 586.5,-999.69 583,-1009.69 590,-1009.69"/>
</g>
<!-- primals_3 -->
<g id="node3" class="node">
<title>primals_3</title>
<path fill="AliceBlue" stroke="black" d="M12,-1048C12,-1048 157,-1048 157,-1048 163,-1048 169,-1054 169,-1060 169,-1060 169,-1220 169,-1220 169,-1226 163,-1232 157,-1232 157,-1232 12,-1232 12,-1232 6,-1232 0,-1226 0,-1220 0,-1220 0,-1060 0,-1060 0,-1054 6,-1048 12,-1048"/>
<text text-anchor="middle" x="84.5" y="-1216.8" font-family="Times,serif" font-size="14.00" fill="#000000">name=%primals_3</text>
<polyline fill="none" stroke="black" points="0,-1209 169,-1209 "/>
<text text-anchor="middle" x="84.5" y="-1193.8" font-family="Times,serif" font-size="14.00" fill="#000000">op_code=placeholder</text>
<polyline fill="none" stroke="black" points="0,-1186 169,-1186 "/>
<text text-anchor="middle" x="84.5" y="-1170.8" font-family="Times,serif" font-size="14.00" fill="#000000">target=primals_3</text>
<polyline fill="none" stroke="black" points="0,-1163 169,-1163 "/>
<text text-anchor="middle" x="84.5" y="-1147.8" font-family="Times,serif" font-size="14.00" fill="#000000">num_users=3</text>
<polyline fill="none" stroke="black" points="0,-1140 169,-1140 "/>
<text text-anchor="middle" x="84.5" y="-1124.8" font-family="Times,serif" font-size="14.00" fill="#000000">dtype=torch.float32</text>
<polyline fill="none" stroke="black" points="0,-1117 169,-1117 "/>
<text text-anchor="middle" x="84.5" y="-1101.8" font-family="Times,serif" font-size="14.00" fill="#000000">shape=(2000, 1)</text>
<polyline fill="none" stroke="black" points="0,-1094 169,-1094 "/>
<text text-anchor="middle" x="84.5" y="-1078.8" font-family="Times,serif" font-size="14.00" fill="#000000">requires_grad=False</text>
<polyline fill="none" stroke="black" points="0,-1071 169,-1071 "/>
<text text-anchor="middle" x="84.5" y="-1055.8" font-family="Times,serif" font-size="14.00" fill="#000000">stride=(1, 1)</text>
</g>
<!-- primals_3&#45;&gt;addmm -->
<g id="edge5" class="edge">
<title>primals_3&#45;&gt;addmm</title>
<path fill="none" stroke="black" d="M161.96,-1047.9C173.23,-1034.65 184.88,-1020.95 196.28,-1007.54"/>
<polygon fill="black" stroke="black" points="199.14,-1009.58 202.96,-999.69 193.81,-1005.04 199.14,-1009.58"/>
</g>
<!-- primals_3&#45;&gt;addmm_1 -->
<g id="edge6" class="edge">
<title>primals_3&#45;&gt;addmm_1</title>
<path fill="none" stroke="black" d="M159.91,-1047.84C165.87,-1043.4 172.08,-1039.39 178.5,-1036 276.86,-984.09 322.94,-1035.07 432.52,-1000.02"/>
<polygon fill="black" stroke="black" points="433.91,-1003.25 442.27,-996.74 431.67,-996.62 433.91,-1003.25"/>
</g>
<!-- output -->
<g id="node12" class="node">
<title>output</title>
<path fill="PowderBlue" stroke="black" d="M147,-0.5C147,-0.5 256,-0.5 256,-0.5 262,-0.5 268,-6.5 268,-12.5 268,-12.5 268,-80.5 268,-80.5 268,-86.5 262,-92.5 256,-92.5 256,-92.5 147,-92.5 147,-92.5 141,-92.5 135,-86.5 135,-80.5 135,-80.5 135,-12.5 135,-12.5 135,-6.5 141,-0.5 147,-0.5"/>
<text text-anchor="middle" x="201.5" y="-77.3" font-family="Times,serif" font-size="14.00" fill="#000000">name=%output</text>
<polyline fill="none" stroke="black" points="135,-69.5 268,-69.5 "/>
<text text-anchor="middle" x="201.5" y="-54.3" font-family="Times,serif" font-size="14.00" fill="#000000">op_code=output</text>
<polyline fill="none" stroke="black" points="135,-46.5 268,-46.5 "/>
<text text-anchor="middle" x="201.5" y="-31.3" font-family="Times,serif" font-size="14.00" fill="#000000">target=output</text>
<polyline fill="none" stroke="black" points="135,-23.5 268,-23.5 "/>
<text text-anchor="middle" x="201.5" y="-8.3" font-family="Times,serif" font-size="14.00" fill="#000000">num_users=0</text>
</g>
<!-- primals_3&#45;&gt;output -->
<g id="edge7" class="edge">
<title>primals_3&#45;&gt;output</title>
<path fill="none" stroke="black" d="M84.5,-1047.77C84.5,-956.57 84.5,-812.33 84.5,-687.5 84.5,-687.5 84.5,-687.5 84.5,-453 84.5,-308.64 42.93,-258.12 107.5,-129 112.78,-118.44 120.1,-108.66 128.34,-99.83"/>
<polygon fill="black" stroke="black" points="130.91,-102.21 135.45,-92.64 125.93,-97.29 130.91,-102.21"/>
</g>
<!-- permute&#45;&gt;addmm -->
<g id="edge8" class="edge">
<title>permute&#45;&gt;addmm</title>
<path fill="none" stroke="black" d="M310.98,-1036.22C308.87,-1027.41 306.75,-1018.5 304.65,-1009.71"/>
<polygon fill="black" stroke="black" points="308.02,-1008.75 302.29,-999.83 301.21,-1010.37 308.02,-1008.75"/>
</g>
<!-- sin -->
<g id="node6" class="node">
<title>sin</title>
<path fill="#ffe4e1" stroke="black" d="M164.5,-594.5C164.5,-594.5 396.5,-594.5 396.5,-594.5 402.5,-594.5 408.5,-600.5 408.5,-606.5 408.5,-606.5 408.5,-766.5 408.5,-766.5 408.5,-772.5 402.5,-778.5 396.5,-778.5 396.5,-778.5 164.5,-778.5 164.5,-778.5 158.5,-778.5 152.5,-772.5 152.5,-766.5 152.5,-766.5 152.5,-606.5 152.5,-606.5 152.5,-600.5 158.5,-594.5 164.5,-594.5"/>
<text text-anchor="middle" x="280.5" y="-763.3" font-family="Times,serif" font-size="14.00" fill="#000000">name=%sin</text>
<polyline fill="none" stroke="black" points="152.5,-755.5 408.5,-755.5 "/>
<text text-anchor="middle" x="280.5" y="-740.3" font-family="Times,serif" font-size="14.00" fill="#000000">op_code=call_function</text>
<polyline fill="none" stroke="black" points="152.5,-732.5 408.5,-732.5 "/>
<text text-anchor="middle" x="280.5" y="-717.3" font-family="Times,serif" font-size="14.00" fill="#000000">target=torch.ops.aten.sin.default</text>
<polyline fill="none" stroke="black" points="152.5,-709.5 408.5,-709.5 "/>
<text text-anchor="middle" x="280.5" y="-694.3" font-family="Times,serif" font-size="14.00" fill="#000000">num_users=1</text>
<polyline fill="none" stroke="black" points="152.5,-686.5 408.5,-686.5 "/>
<text text-anchor="middle" x="280.5" y="-671.3" font-family="Times,serif" font-size="14.00" fill="#000000">dtype=torch.float32</text>
<polyline fill="none" stroke="black" points="152.5,-663.5 408.5,-663.5 "/>
<text text-anchor="middle" x="280.5" y="-648.3" font-family="Times,serif" font-size="14.00" fill="#000000">shape=(2000, 1)</text>
<polyline fill="none" stroke="black" points="152.5,-640.5 408.5,-640.5 "/>
<text text-anchor="middle" x="280.5" y="-625.3" font-family="Times,serif" font-size="14.00" fill="#000000">requires_grad=False</text>
<polyline fill="none" stroke="black" points="152.5,-617.5 408.5,-617.5 "/>
<text text-anchor="middle" x="280.5" y="-602.3" font-family="Times,serif" font-size="14.00" fill="#000000">stride=(1, 1)</text>
</g>
<!-- addmm&#45;&gt;sin -->
<g id="edge9" class="edge">
<title>addmm&#45;&gt;sin</title>
<path fill="none" stroke="black" d="M280.5,-815.21C280.5,-806.52 280.5,-797.68 280.5,-788.9"/>
<polygon fill="black" stroke="black" points="284,-788.64 280.5,-778.64 277,-788.64 284,-788.64"/>
</g>
<!-- addmm&#45;&gt;output -->
<g id="edge10" class="edge">
<title>addmm&#45;&gt;output</title>
<path fill="none" stroke="black" d="M165.5,-815.13C156.74,-803.87 149.14,-791.78 143.5,-779 85.24,-646.83 97.67,-266.31 142.5,-129 145.63,-119.41 150.35,-110 155.79,-101.18"/>
<polygon fill="black" stroke="black" points="158.88,-102.85 161.42,-92.56 153.02,-99.01 158.88,-102.85"/>
</g>
<!-- mul -->
<g id="node7" class="node">
<title>mul</title>
<path fill="#ffe7ba" stroke="black" d="M162.5,-350.5C162.5,-350.5 398.5,-350.5 398.5,-350.5 404.5,-350.5 410.5,-356.5 410.5,-362.5 410.5,-362.5 410.5,-545.5 410.5,-545.5 410.5,-551.5 404.5,-557.5 398.5,-557.5 398.5,-557.5 162.5,-557.5 162.5,-557.5 156.5,-557.5 150.5,-551.5 150.5,-545.5 150.5,-545.5 150.5,-362.5 150.5,-362.5 150.5,-356.5 156.5,-350.5 162.5,-350.5"/>
<text text-anchor="middle" x="280.5" y="-542.3" font-family="Times,serif" font-size="14.00" fill="#000000">name=%mul</text>
<polyline fill="none" stroke="black" points="150.5,-534.5 410.5,-534.5 "/>
<text text-anchor="middle" x="280.5" y="-519.3" font-family="Times,serif" font-size="14.00" fill="#000000">op_code=call_function</text>
<polyline fill="none" stroke="black" points="150.5,-511.5 410.5,-511.5 "/>
<text text-anchor="middle" x="280.5" y="-496.3" font-family="Times,serif" font-size="14.00" fill="#000000">target=torch.ops.aten.mul.Tensor</text>
<polyline fill="none" stroke="black" points="150.5,-488.5 410.5,-488.5 "/>
<text text-anchor="middle" x="280.5" y="-473.3" font-family="Times,serif" font-size="14.00" fill="#000000">args=(2,)</text>
<polyline fill="none" stroke="black" points="150.5,-465.5 410.5,-465.5 "/>
<text text-anchor="middle" x="280.5" y="-450.3" font-family="Times,serif" font-size="14.00" fill="#000000">num_users=1</text>
<polyline fill="none" stroke="black" points="150.5,-442.5 410.5,-442.5 "/>
<text text-anchor="middle" x="280.5" y="-427.3" font-family="Times,serif" font-size="14.00" fill="#000000">dtype=torch.float32</text>
<polyline fill="none" stroke="black" points="150.5,-419.5 410.5,-419.5 "/>
<text text-anchor="middle" x="280.5" y="-404.3" font-family="Times,serif" font-size="14.00" fill="#000000">shape=(2000, 1)</text>
<polyline fill="none" stroke="black" points="150.5,-396.5 410.5,-396.5 "/>
<text text-anchor="middle" x="280.5" y="-381.3" font-family="Times,serif" font-size="14.00" fill="#000000">requires_grad=False</text>
<polyline fill="none" stroke="black" points="150.5,-373.5 410.5,-373.5 "/>
<text text-anchor="middle" x="280.5" y="-358.3" font-family="Times,serif" font-size="14.00" fill="#000000">stride=(1, 1)</text>
</g>
<!-- sin&#45;&gt;mul -->
<g id="edge11" class="edge">
<title>sin&#45;&gt;mul</title>
<path fill="none" stroke="black" d="M280.5,-594.4C280.5,-585.62 280.5,-576.65 280.5,-567.7"/>
<polygon fill="black" stroke="black" points="284,-567.61 280.5,-557.61 277,-567.61 284,-567.61"/>
</g>
<!-- add -->
<g id="node11" class="node">
<title>add</title>
<path fill="#ffe4e1" stroke="black" d="M163,-129.5C163,-129.5 398,-129.5 398,-129.5 404,-129.5 410,-135.5 410,-141.5 410,-141.5 410,-301.5 410,-301.5 410,-307.5 404,-313.5 398,-313.5 398,-313.5 163,-313.5 163,-313.5 157,-313.5 151,-307.5 151,-301.5 151,-301.5 151,-141.5 151,-141.5 151,-135.5 157,-129.5 163,-129.5"/>
<text text-anchor="middle" x="280.5" y="-298.3" font-family="Times,serif" font-size="14.00" fill="#000000">name=%add</text>
<polyline fill="none" stroke="black" points="151,-290.5 410,-290.5 "/>
<text text-anchor="middle" x="280.5" y="-275.3" font-family="Times,serif" font-size="14.00" fill="#000000">op_code=call_function</text>
<polyline fill="none" stroke="black" points="151,-267.5 410,-267.5 "/>
<text text-anchor="middle" x="280.5" y="-252.3" font-family="Times,serif" font-size="14.00" fill="#000000">target=torch.ops.aten.add.Tensor</text>
<polyline fill="none" stroke="black" points="151,-244.5 410,-244.5 "/>
<text text-anchor="middle" x="280.5" y="-229.3" font-family="Times,serif" font-size="14.00" fill="#000000">num_users=1</text>
<polyline fill="none" stroke="black" points="151,-221.5 410,-221.5 "/>
<text text-anchor="middle" x="280.5" y="-206.3" font-family="Times,serif" font-size="14.00" fill="#000000">dtype=torch.float32</text>
<polyline fill="none" stroke="black" points="151,-198.5 410,-198.5 "/>
<text text-anchor="middle" x="280.5" y="-183.3" font-family="Times,serif" font-size="14.00" fill="#000000">shape=(2000, 1)</text>
<polyline fill="none" stroke="black" points="151,-175.5 410,-175.5 "/>
<text text-anchor="middle" x="280.5" y="-160.3" font-family="Times,serif" font-size="14.00" fill="#000000">requires_grad=False</text>
<polyline fill="none" stroke="black" points="151,-152.5 410,-152.5 "/>
<text text-anchor="middle" x="280.5" y="-137.3" font-family="Times,serif" font-size="14.00" fill="#000000">stride=(1, 1)</text>
</g>
<!-- mul&#45;&gt;add -->
<g id="edge12" class="edge">
<title>mul&#45;&gt;add</title>
<path fill="none" stroke="black" d="M280.5,-350.22C280.5,-341.51 280.5,-332.69 280.5,-323.99"/>
<polygon fill="black" stroke="black" points="284,-323.83 280.5,-313.83 277,-323.83 284,-323.83"/>
</g>
<!-- permute_1&#45;&gt;addmm_1 -->
<g id="edge13" class="edge">
<title>permute_1&#45;&gt;addmm_1</title>
<path fill="none" stroke="black" d="M725.58,-1036.22C714.96,-1026.46 704.2,-1016.59 693.62,-1006.87"/>
<polygon fill="black" stroke="black" points="695.69,-1004.02 685.95,-999.83 690.95,-1009.17 695.69,-1004.02"/>
</g>
<!-- cos -->
<g id="node10" class="node">
<title>cos</title>
<path fill="Coral" stroke="black" d="M440.5,-362C440.5,-362 674.5,-362 674.5,-362 680.5,-362 686.5,-368 686.5,-374 686.5,-374 686.5,-534 686.5,-534 686.5,-540 680.5,-546 674.5,-546 674.5,-546 440.5,-546 440.5,-546 434.5,-546 428.5,-540 428.5,-534 428.5,-534 428.5,-374 428.5,-374 428.5,-368 434.5,-362 440.5,-362"/>
<text text-anchor="middle" x="557.5" y="-530.8" font-family="Times,serif" font-size="14.00" fill="#000000">name=%cos</text>
<polyline fill="none" stroke="black" points="428.5,-523 686.5,-523 "/>
<text text-anchor="middle" x="557.5" y="-507.8" font-family="Times,serif" font-size="14.00" fill="#000000">op_code=call_function</text>
<polyline fill="none" stroke="black" points="428.5,-500 686.5,-500 "/>
<text text-anchor="middle" x="557.5" y="-484.8" font-family="Times,serif" font-size="14.00" fill="#000000">target=torch.ops.aten.cos.default</text>
<polyline fill="none" stroke="black" points="428.5,-477 686.5,-477 "/>
<text text-anchor="middle" x="557.5" y="-461.8" font-family="Times,serif" font-size="14.00" fill="#000000">num_users=1</text>
<polyline fill="none" stroke="black" points="428.5,-454 686.5,-454 "/>
<text text-anchor="middle" x="557.5" y="-438.8" font-family="Times,serif" font-size="14.00" fill="#000000">dtype=torch.float32</text>
<polyline fill="none" stroke="black" points="428.5,-431 686.5,-431 "/>
<text text-anchor="middle" x="557.5" y="-415.8" font-family="Times,serif" font-size="14.00" fill="#000000">shape=(2000, 1)</text>
<polyline fill="none" stroke="black" points="428.5,-408 686.5,-408 "/>
<text text-anchor="middle" x="557.5" y="-392.8" font-family="Times,serif" font-size="14.00" fill="#000000">requires_grad=False</text>
<polyline fill="none" stroke="black" points="428.5,-385 686.5,-385 "/>
<text text-anchor="middle" x="557.5" y="-369.8" font-family="Times,serif" font-size="14.00" fill="#000000">stride=(1, 1)</text>
</g>
<!-- addmm_1&#45;&gt;cos -->
<g id="edge14" class="edge">
<title>addmm_1&#45;&gt;cos</title>
<path fill="none" stroke="black" d="M580.65,-815.4C575.84,-740.46 569.02,-634.32 564.03,-556.63"/>
<polygon fill="black" stroke="black" points="567.5,-556.1 563.37,-546.34 560.52,-556.55 567.5,-556.1"/>
</g>
<!-- addmm_1&#45;&gt;output -->
<g id="edge15" class="edge">
<title>addmm_1&#45;&gt;output</title>
<path fill="none" stroke="black" d="M637.69,-815.37C694.41,-701.38 768.82,-502.64 695.5,-350 615.45,-183.36 395.63,-100.06 278.06,-66.34"/>
<polygon fill="black" stroke="black" points="278.96,-62.96 268.39,-63.61 277.06,-69.69 278.96,-62.96"/>
</g>
<!-- cos&#45;&gt;add -->
<g id="edge16" class="edge">
<title>cos&#45;&gt;add</title>
<path fill="none" stroke="black" d="M448.02,-361.9C431.65,-348.27 414.71,-334.18 398.17,-320.42"/>
<polygon fill="black" stroke="black" points="400.02,-317.4 390.09,-313.69 395.54,-322.78 400.02,-317.4"/>
</g>
<!-- add&#45;&gt;output -->
<g id="edge17" class="edge">
<title>add&#45;&gt;output</title>
<path fill="none" stroke="black" d="M238.92,-129.44C234.66,-120.11 230.43,-110.86 226.44,-102.11"/>
<polygon fill="black" stroke="black" points="229.54,-100.48 222.2,-92.84 223.17,-103.39 229.54,-100.48"/>
</g>
</g>
</svg>
